<svg width="72" height="110" viewBox="0 0 72 110" version="1.1" xmlns="http://www.w3.org/2000/svg" xmlns:xlink="http://www.w3.org/1999/xlink">
<g id="Canvas" fill="none">
<g id="Union">
<path fill-rule="evenodd" clip-rule="evenodd" d="M 51.9414 27.5474C 51.1304 29.2776 50.0542 30.5779 48.8042 31.5693L 71.3955 96.8606C 72.1309 98.9851 71.5923 101.286 70.0239 102.724C 65.2773 107.076 51.6035 110 36 110C 20.3848 110 6.70801 107.073 1.96777 102.717C 0.411133 101.286 -0.131348 98.9946 0.587402 96.8821L 22.8926 31.2566C 21.7715 30.2979 20.8188 29.0713 20.084 27.5115C 8.85547 25.8774 0 22.4602 0 17.4468C 0 10.4741 16.2036 7.823 22.0376 7.09644C 25.208 2.80103 30.2778 0 36 0C 41.7227 0 46.793 2.80151 49.9629 7.09668C 56.2437 7.88354 72 10.5464 72 17.4468C 72 22.4548 63.1636 25.8704 51.9512 27.5068C 51.9487 27.5132 51.9478 27.5198 51.9468 27.5264L 51.9458 27.5305C 51.9448 27.5361 51.9438 27.5417 51.9414 27.5474ZM 50.7798 17.4473C 50.7798 9.2793 44.1499 2.63379 36.0005 2.63379C 27.8511 2.63379 21.2212 9.27881 21.2217 17.4473C 21.2959 18.4194 26.4136 20.6978 36.0005 20.6978C 45.5874 20.6978 50.7046 18.4194 50.7798 17.4473ZM 20.3091 9.98608C 8.67773 11.6819 2.60596 14.9353 2.60596 17.4473C 2.60596 21.0129 15.3101 25.9846 36.0005 25.9846C 56.6904 25.9846 69.3945 21.0129 69.3945 17.4473C 69.3945 14.9844 63.207 11.6846 51.6948 9.99292C 52.7671 12.2568 53.3853 14.7781 53.3853 17.4473C 53.3853 21.4897 44.3735 23.3311 36.0005 23.3311C 27.6274 23.3311 18.6157 21.4897 18.6157 17.4473C 18.6157 14.7756 19.2349 12.2517 20.3091 9.98608ZM 48.7021 27.9238C 44.5933 28.3828 40.2642 28.6182 36.0005 28.6182C 31.752 28.6182 27.4399 28.3845 23.3457 27.929C 25.792 31.2607 30.0879 31.99 36.0171 31.99C 41.9761 31.99 46.2759 31.2634 48.7021 27.9238ZM 36.0005 107.367C 50.7676 107.367 64.0391 104.657 68.2734 100.775C 69.0527 100.06 69.3193 98.8359 68.937 97.73L 46.5269 32.9629C 43.3774 34.4255 39.5864 34.623 36.0171 34.623C 32.1172 34.623 28.2559 34.3052 25.1455 32.7375L 3.05225 97.738C 2.67822 98.8389 2.94727 100.058 3.72168 100.769C 7.94922 104.654 21.2231 107.367 36.0005 107.367ZM 35.6362 16.0986C 38.2275 16.0986 40.3364 13.9795 40.3364 11.376C 40.3364 8.77124 38.228 6.6521 35.6362 6.6521C 33.0449 6.6521 30.9365 8.77124 30.9365 11.376C 30.9365 12.7483 31.5293 14.0503 32.563 14.9492C 33.4155 15.6897 34.5063 16.0986 35.6362 16.0986ZM 35.6362 9.28516C 36.791 9.28516 37.73 10.2224 37.73 11.376C 37.73 12.5278 36.791 13.4656 35.6362 13.4656C 35.1304 13.4656 34.6421 13.2839 34.2637 12.9536C 33.8057 12.5552 33.5425 11.9807 33.5425 11.376C 33.5425 10.2224 34.4819 9.28516 35.6362 9.28516ZM 30.231 95.488C 31.3667 96.6399 33.0386 97.2239 35.2466 97.24C 37.4546 97.2239 39.127 96.6399 40.2627 95.488C 41.3989 94.3201 42.0229 92.792 42.1348 90.9041C 42.167 90.04 42.1826 89.272 42.1826 88.5999C 42.1826 87.9119 42.167 87.1199 42.1348 86.2239C 42.0386 84.3679 41.4067 82.864 40.2388 81.7119C 39.0708 80.5601 37.4067 79.9761 35.2466 79.96C 33.791 79.96 32.5586 80.24 31.5508 80.8C 30.543 81.344 29.7749 82.0879 29.2466 83.032C 28.7349 83.96 28.4468 85.0239 28.3828 86.2239C 28.3506 87.1199 28.335 87.9119 28.335 88.5999C 28.335 89.272 28.3506 90.04 28.3828 90.9041C 28.479 92.792 29.0947 94.3201 30.231 95.488ZM 36.999 92.9919C 36.6147 93.5039 36.0308 93.76 35.2466 93.76C 33.7271 93.76 32.9268 92.7681 32.8467 90.7839C 32.8311 90.3201 32.8228 89.5759 32.8228 88.552C 32.8228 87.5281 32.8311 86.8 32.8467 86.3679C 32.8789 85.4561 33.0869 84.7358 33.4707 84.208C 33.8706 83.6799 34.4629 83.408 35.2466 83.3918C 36.0469 83.408 36.6387 83.6799 37.0229 84.208C 37.4067 84.7358 37.6147 85.4561 37.647 86.3679C 37.6787 86.8 37.6948 87.5281 37.6948 88.552C 37.6948 89.5759 37.6787 90.3201 37.647 90.7839C 37.6147 91.728 37.3989 92.4639 36.999 92.9919ZM 19.2319 96.832C 19.3599 96.9438 19.5039 97 19.6641 97L 22.6401 97C 22.8159 97 22.96 96.9438 23.0718 96.832C 23.1841 96.7039 23.2402 96.5601 23.2402 96.3999L 23.2402 93.688L 25.376 93.688C 25.5518 93.688 25.6958 93.6321 25.8081 93.52C 25.9199 93.408 25.9761 93.2639 25.9761 93.0879L 25.9761 90.7119C 25.9761 90.552 25.9199 90.416 25.8081 90.304C 25.6958 90.176 25.5439 90.1121 25.3521 90.1121L 23.2402 90.1121L 23.2402 80.8C 23.2402 80.624 23.1841 80.48 23.0718 80.3679C 22.96 80.2559 22.8159 80.2 22.6401 80.2L 19.1362 80.2C 18.7681 80.2 18.4722 80.3359 18.248 80.6079L 11.2642 90.064C 11.0879 90.3201 11 90.5679 11 90.8079L 11 93.0879C 11 93.2639 11.0562 93.408 11.168 93.52C 11.2798 93.6321 11.4238 93.688 11.6001 93.688L 19.064 93.688L 19.064 96.3999C 19.064 96.5601 19.1201 96.7039 19.2319 96.832ZM 19.1602 84.616L 19.1602 90.28L 15.1279 90.28L 19.1602 84.616ZM 53.1592 97C 52.9995 97 52.8555 96.9438 52.7275 96.832C 52.6152 96.7039 52.5591 96.5601 52.5591 96.3999L 52.5591 93.688L 45.0952 93.688C 44.9194 93.688 44.7754 93.6321 44.6631 93.52C 44.5513 93.408 44.4951 93.2639 44.4951 93.0879L 44.4951 90.8079C 44.4951 90.5679 44.5835 90.3201 44.7593 90.064L 51.7432 80.6079C 51.9673 80.3359 52.2632 80.2 52.6313 80.2L 56.1353 80.2C 56.3115 80.2 56.4551 80.2559 56.5674 80.3679C 56.6792 80.48 56.7354 80.624 56.7354 80.8L 56.7354 90.1121L 58.8472 90.1121C 59.0396 90.1121 59.1914 90.176 59.3032 90.304C 59.4155 90.416 59.4712 90.552 59.4712 90.7119L 59.4712 93.0879C 59.4712 93.2639 59.4155 93.408 59.3032 93.52C 59.1914 93.6321 59.0474 93.688 58.8711 93.688L 56.7354 93.688L 56.7354 96.3999C 56.7354 96.5601 56.6792 96.7039 56.5674 96.832C 56.4551 96.9438 56.3115 97 56.1353 97L 53.1592 97ZM 52.6553 90.28L 52.6553 84.616L 48.6235 90.28L 52.6553 90.28ZM 35.6362 50.9709C 36.3555 50.9709 36.939 50.3821 36.939 49.6543L 36.939 41.5349C 36.939 40.8071 36.3555 40.2183 35.6362 40.2183C 34.9165 40.2183 34.333 40.8066 34.333 41.5349L 34.333 49.6543C 34.333 50.3821 34.9165 50.9709 35.6362 50.9709ZM 41.5352 60.2075C 42.4531 59.9402 43.4404 60.2437 44.0562 60.979L 47.0674 64.5859C 47.5312 65.1411 47.4614 65.9719 46.9121 66.4409C 46.668 66.6494 46.3691 66.7507 46.0718 66.7507C 45.7017 66.7507 45.333 66.5913 45.0752 66.283L 42.1421 62.7715L 39.8496 63.4414L 41.0303 64.4907C 41.769 65.1453 42.1602 66.1292 42.0791 67.1189L 41.811 70.3899C 41.7549 71.0779 41.1851 71.5986 40.5137 71.5986C 40.478 71.5986 40.4419 71.5972 40.4053 71.5942C 39.6885 71.5337 39.1548 70.8975 39.2139 70.1733L 39.4819 66.9016C 39.4956 66.7373 39.4312 66.5762 39.3105 66.4695L 36.4536 63.9297L 33.5938 62.365C 33.605 62.6985 33.6206 63.071 33.646 63.5183C 33.6558 63.696 33.7236 63.8608 33.8428 63.9958L 35.9268 66.3652C 36.4053 66.9077 36.3569 67.74 35.8193 68.2234C 35.5708 68.4468 35.2617 68.5566 34.9541 68.5566C 34.5947 68.5566 34.2368 68.407 33.98 68.114L 31.896 65.7454C 31.3896 65.1709 31.0874 64.4329 31.0439 63.668C 30.9702 62.363 30.9561 61.5127 30.9756 60.9329L 30.667 60.7639C 30.3721 60.9878 30.0425 61.1665 29.6782 61.2766C 29.3818 61.3652 29.0801 61.4099 28.7788 61.4099C 28.2642 61.4099 27.7539 61.28 27.2881 61.0244C 26.5518 60.6218 26.0142 59.9536 25.7749 59.1409C 25.5356 58.3284 25.624 57.4702 26.0234 56.7258C 26.8472 55.1909 28.7544 54.616 30.2773 55.4465C 31.0151 55.8503 31.5527 56.5186 31.792 57.3315C 31.9004 57.7 31.9326 58.0771 31.9077 58.4495L 32.5142 58.781L 34.9614 58.0022C 35.2017 57.9265 35.3921 57.7361 35.4717 57.4946L 36.0977 55.5811C 36.3237 54.8909 37.061 54.5127 37.7441 54.7456C 38.4268 54.9729 38.7979 55.719 38.5718 56.4094L 37.9448 58.3242C 37.6021 59.3669 36.7793 60.186 35.7437 60.5151L 35.7061 60.5269L 37.355 61.4287L 41.5352 60.2075ZM 28.5298 58.7083C 28.7017 58.8032 28.8589 58.7751 28.9355 58.752C 29.0146 58.7288 29.1602 58.6633 29.2529 58.491" fill="#EEEEEE"/>
</g>
</g>
</svg>

