<svg width="15" height="15" viewBox="0 0 15 15" fill="none" xmlns="http://www.w3.org/2000/svg">
<path d="M2.06301 0.247099C1.89014 0.160468 1.50507 0.0438147 1.04671 0.013461C0.588165 -0.0168265 -1.85669e-07 0.013461 -1.85669e-07 0.013461V1.99868C-1.85669e-07 1.99868 0.614155 2.01178 1.02522 1.98149C1.43589 1.9512 1.85986 1.84744 2.07181 1.73053C2.28362 1.61374 2.53888 1.43208 2.53888 0.978033C2.53888 0.523786 2.23607 0.333597 2.06301 0.247099Z" transform="translate(6.91162 7.83691)" fill="white"/>
<path d="M0.769892 1.80846C1.10742 1.79543 1.46638 1.71766 1.72568 1.57489C1.98524 1.43218 2.13225 1.20741 2.12378 0.869944C2.11492 0.532549 1.89021 0.247132 1.50963 0.130214C1.12891 0.0134286 0.873915 0.00476572 0.583933 0.000467275C0.294149 -0.00376504 -1.49343e-07 0.0221576 -1.49343e-07 0.0221576V1.80846C6.59812e-05 1.80846 0.43256 1.82149 0.769892 1.80846Z" transform="translate(6.91162 5.12054)" fill="white"/>
<path d="M7.50007 0C3.35791 0 0 3.35782 0 7.5C0 11.6421 3.35791 15 7.50007 15C11.6422 15 15 11.6421 15 7.5C15 3.35782 11.6422 0 7.50007 0ZM10.5538 10.3677C9.9957 10.757 9.39887 10.8263 9.13501 10.8607C9.0048 10.8779 8.78174 10.8959 8.54255 10.9099V12.4136H7.61685V10.9343C7.44392 10.9343 7.1962 10.9343 6.9119 10.9343V12.4136H5.98627V10.9343C5.07023 10.9343 4.16537 10.9343 4.16537 10.9343L4.35562 9.82248C4.35562 9.82248 4.72324 9.82248 4.9092 9.82248C5.09529 9.82248 5.173 9.80522 5.25083 9.73175C5.32867 9.65815 5.34599 9.5458 5.34599 9.4548C5.34599 9.36401 5.34599 5.86487 5.34599 5.62482C5.34599 5.3849 5.32649 5.31996 5.21618 5.19676C5.10588 5.07329 4.84645 5.05709 4.70036 5.05709C4.55441 5.05709 4.1653 5.05709 4.1653 5.05709V4.09602C4.1653 4.09602 5.04127 4.09602 5.98621 4.09602V2.61247H6.91177V4.09602C7.16895 4.09602 7.41019 4.09602 7.61672 4.09602V2.61247H8.54242V4.11381C9.23249 4.1566 9.74619 4.28807 10.1946 4.61938C10.7743 5.04757 10.7438 5.79147 10.7309 5.96883C10.718 6.14619 10.6401 6.48795 10.4843 6.70836C10.3287 6.92903 9.94809 7.14964 9.94809 7.14964C9.94809 7.14964 10.3978 7.24474 10.7137 7.48267C11.0293 7.72061 11.2631 8.14007 11.2498 8.75429C11.2371 9.3685 11.1117 9.97842 10.5538 10.3677Z" fill="white"/>
</svg>
