<svg width="8" height="14" viewBox="0 0 8 14" fill="none" xmlns="http://www.w3.org/2000/svg">
<path d="M1.88266 4.05815C1.88266 3.42549 2.80798 3.31746 3.61061 3.31746C4.3671 3.31746 5.40077 3.672 6.26507 4.12009L6.43444 2.37635C6.00221 2.12923 4.99948 1.83597 3.98095 1.77469L4.22779 4.67163e-08H2.57666L2.82383 1.77469C0.694546 1.975 -3.33688e-08 3.20938 -3.33688e-08 4.24332C-3.33688e-08 6.85098 4.86018 6.29607 4.86018 7.90018C4.86018 8.5025 4.28974 8.71801 3.28646 8.71801C1.92886 8.71801 0.91006 8.24018 0.385816 7.74601L0.123229 9.70587C0.617459 9.99913 1.61986 10.2614 2.82383 10.3233L2.57666 12.0361H4.22779L3.98095 10.3076C6.48064 10.0914 6.92807 8.76421 6.92807 7.88504C6.92812 4.78369 1.88266 5.55478 1.88266 4.05815Z" transform="translate(0.535156 0.982269)" fill="#333333"/>
</svg>
