<svg width="18" height="20" viewBox="0 0 18 20" version="1.1" xmlns="http://www.w3.org/2000/svg" xmlns:xlink="http://www.w3.org/1999/xlink">
<g id="Canvas" fill="none">
<g id="calendar (1)">
<g id="Group">
<g id="Group_2">
<g id="Vector">
<path fill-rule="evenodd" clip-rule="evenodd" d="M 0.987644 -0.15L 15.0124 -0.15C 15.6544 -0.15 16.15 0.425302 16.15 1.09839L 16.15 15.3771C 16.15 16.0502 15.6544 16.6255 15.0124 16.6255L 0.987644 16.6255C 0.345613 16.6255 -0.15 16.0502 -0.15 15.3771L -0.15 1.09835C -0.15 0.425259 0.345616 -0.15 0.987644 -0.15ZM 1.33519 15.0075L 14.6648 15.0075L 14.6648 1.46804L 1.33519 1.46804L 1.33519 15.0075Z" transform="translate(1 2.54785)" fill="#433099"/>
<path fill-rule="evenodd" clip-rule="evenodd" d="M 0.987644 -0.15L 15.0124 -0.15C 15.6544 -0.15 16.15 0.425302 16.15 1.09839L 16.15 15.3771C 16.15 16.0502 15.6544 16.6255 15.0124 16.6255L 0.987644 16.6255C 0.345613 16.6255 -0.15 16.0502 -0.15 15.3771L -0.15 1.09835C -0.15 0.425259 0.345616 -0.15 0.987644 -0.15ZM 1.33519 15.0075L 14.6648 15.0075L 14.6648 1.46804L 1.33519 1.46804L 1.33519 15.0075Z" stroke-width="0.3" stroke-miterlimit="8" transform="translate(1 2.54785)" stroke="#433099"/>
</g>
</g>
</g>
<g id="Group_3">
<g id="Group_4">
<g id="Vector_2">
<path fill-rule="evenodd" clip-rule="evenodd" d="M 14.9648 -0.15L 14.9648 0L 14.9648 1.31804L 14.9648 1.46804L 14.8148 1.46804L 0 1.46804L -0.15 1.46804L -0.15 1.31804L -0.15 0L -0.15 -0.15L 0 -0.15L 14.8148 -0.15L 14.9648 -0.15Z" transform="translate(1.59277 6.94128)" fill="#433099"/>
<path fill-rule="evenodd" clip-rule="evenodd" d="M 14.9648 -0.15L 14.9648 0L 14.9648 1.31804L 14.9648 1.46804L 14.8148 1.46804L 0 1.46804L -0.15 1.46804L -0.15 1.31804L -0.15 0L -0.15 -0.15L 0 -0.15L 14.8148 -0.15L 14.9648 -0.15Z" stroke-width="0.3" stroke-miterlimit="8" transform="translate(1.59277 6.94128)" stroke="#433099"/>
</g>
</g>
</g>
<g id="Group_5">
<g id="Group_6">
<g id="Vector_3">
<path fill-rule="evenodd" clip-rule="evenodd" d="M -0.15 0.659018C -0.15 0.227582 0.167864 -0.15 0.592593 -0.15C 1.01732 -0.15 1.33519 0.227582 1.33519 0.659018L 1.33519 4.17379C 1.33519 4.60523 1.01732 4.98281 0.592593 4.98281C 0.167864 4.98281 -0.15 4.60523 -0.15 4.17379L -0.15 0.659018Z" transform="translate(4.55566 0.790649)" fill="#433099"/>
<path fill-rule="evenodd" clip-rule="evenodd" d="M -0.15 0.659018C -0.15 0.227582 0.167864 -0.15 0.592593 -0.15C 1.01732 -0.15 1.33519 0.227582 1.33519 0.659018L 1.33519 4.17379C 1.33519 4.60523 1.01732 4.98281 0.592593 4.98281C 0.167864 4.98281 -0.15 4.60523 -0.15 4.17379L -0.15 0.659018Z" stroke-width="0.3" stroke-miterlimit="8" transform="translate(4.55566 0.790649)" stroke="#433099"/>
</g>
</g>
</g>
<g id="Group_7">
<g id="Group_8">
<g id="Vector_4">
<path fill-rule="evenodd" clip-rule="evenodd" d="M -0.15 0.659018C -0.15 0.227582 0.167865 -0.15 0.592593 -0.15C 1.01732 -0.15 1.33518 0.227582 1.33518 0.659018L 1.33518 4.17379C 1.33518 4.60523 1.01732 4.98281 0.592593 4.98281C 0.167865 4.98281 -0.15 4.60523 -0.15 4.17379L -0.15 0.659018Z" transform="translate(12.4565 0.790649)" fill="#433099"/>
<path fill-rule="evenodd" clip-rule="evenodd" d="M -0.15 0.659018C -0.15 0.227582 0.167865 -0.15 0.592593 -0.15C 1.01732 -0.15 1.33518 0.227582 1.33518 0.659018L 1.33518 4.17379C 1.33518 4.60523 1.01732 4.98281 0.592593 4.98281C 0.167865 4.98281 -0.15 4.60523 -0.15 4.17379L -0.15 0.659018Z" stroke-width="0.3" stroke-miterlimit="8" transform="translate(12.4565 0.790649)" stroke="#433099"/>
</g>
</g>
</g>
<g id="Group_9">
<g id="Group_10">
<g id="Vector_5">
<path fill-rule="evenodd" clip-rule="evenodd" d="M 0.592593 -0.15L 4.93828 -0.15C 5.36301 -0.15 5.68087 0.227583 5.68087 0.659018C 5.68087 1.09045 5.36301 1.46804 4.93828 1.46804L 0.592593 1.46804C 0.167864 1.46804 -0.15 1.09045 -0.15 0.659018C -0.15 0.227583 0.167864 -0.15 0.592593 -0.15Z" transform="translate(6.33301 13.9712)" fill="#433099"/>
<path fill-rule="evenodd" clip-rule="evenodd" d="M 0.592593 -0.15L 4.93828 -0.15C 5.36301 -0.15 5.68087 0.227583 5.68087 0.659018C 5.68087 1.09045 5.36301 1.46804 4.93828 1.46804L 0.592593 1.46804C 0.167864 1.46804 -0.15 1.09045 -0.15 0.659018C -0.15 0.227583 0.167864 -0.15 0.592593 -0.15Z" stroke-width="0.3" stroke-miterlimit="8" transform="translate(6.33301 13.9712)" stroke="#433099"/>
</g>
</g>
</g>
<g id="Group_11">
<g id="Group_12">
<g id="Vector_6">
<path fill-rule="evenodd" clip-rule="evenodd" d="M 0.592593 -0.15L 4.93828 -0.15C 5.36301 -0.15 5.68087 0.227542 5.68087 0.659019C 5.68087 1.0905 5.363 1.46804 4.93828 1.46804L 0.592593 1.46804C 0.167864 1.46804 -0.15 1.09045 -0.15 0.659019C -0.15 0.227583 0.167864 -0.15 0.592593 -0.15Z" transform="translate(6.33301 10.8956)" fill="#433099"/>
<path fill-rule="evenodd" clip-rule="evenodd" d="M 0.592593 -0.15L 4.93828 -0.15C 5.36301 -0.15 5.68087 0.227542 5.68087 0.659019C 5.68087 1.0905 5.363 1.46804 4.93828 1.46804L 0.592593 1.46804C 0.167864 1.46804 -0.15 1.09045 -0.15 0.659019C -0.15 0.227583 0.167864 -0.15 0.592593 -0.15Z" stroke-width="0.3" stroke-miterlimit="8" transform="translate(6.33301 10.8956)" stroke="#433099"/>
</g>
</g>
</g>
</g>
</g>
</svg>

