<svg width="17" height="14" viewBox="0 0 17 14" version="1.1" xmlns="http://www.w3.org/2000/svg" xmlns:xlink="http://www.w3.org/1999/xlink">
<g id="Canvas" fill="none">
<g id="Vector">
<path d="M 14.6818 0L 2.31818 0C 1.03797 0 0 1.04475 0 2.33333L 0 11.6667C 0 12.9552 1.03797 14 2.31818 14L 14.6818 14C 15.962 14 17 12.9552 17 11.6667L 17 2.33333C 17 1.04475 15.962 0 14.6818 0ZM 14.6818 1.55556C 14.7705 1.55556 14.8543 1.57364 14.9335 1.60125L 8.5 6.78164L 2.06647 1.60125C 2.14586 1.57364 2.22951 1.55556 2.31818 1.55556L 14.6818 1.55556ZM 14.6818 12.4444L 2.31818 12.4444C 1.89125 12.4444 1.54545 12.0964 1.54545 11.6667L 1.54545 3.17392L 8.01724 8.38503C 8.15826 8.49878 8.32923 8.55556 8.5 8.55556C 8.67077 8.55556 8.84174 8.49878 8.98276 8.38503L 15.4545 3.17392L 15.4545 11.6667C 15.4545 12.0964 15.1088 12.4444 14.6818 12.4444Z" fill="#433099"/>
</g>
</g>
</svg>

