<svg width="18" height="18" viewBox="0 0 18 18" version="1.1" xmlns="http://www.w3.org/2000/svg" xmlns:xlink="http://www.w3.org/1999/xlink">
<g id="Canvas" fill="none">
<g id="Union">
<path fill-rule="evenodd" clip-rule="evenodd" d="M 16.5 9C 16.5 13.1421 13.1421 16.5 9 16.5C 4.85791 16.5 1.5 13.1421 1.5 9C 1.5 4.85791 4.85791 1.5 9 1.5C 13.1421 1.5 16.5 4.85791 16.5 9ZM 18 9C 18 13.9705 13.9705 18 9 18C 4.02954 18 0 13.9705 0 9C 0 4.02954 4.02954 0 9 0C 13.9705 0 18 4.02954 18 9ZM 6.35986 3.04248L 11.3875 8.22095L 10.075 9.49585L 11.6399 14.9578L 6.70679 9.75806L 8 8.53027L 6.35986 3.04248Z" transform="translate(18 0) scale(-1 1)" fill="#433099"/>
</g>
</g>
</svg>

