<svg width="20" height="20" viewBox="0 0 20 20" fill="none" xmlns="http://www.w3.org/2000/svg">
<path d="M9.78117 20H10H10.2188H10.6116V19.9796C15.8417 19.6622 20 15.3084 20 10.0002C20 4.69158 15.8417 0.337762 10.6116 0.0207468C10.4818 0.0128359 10.3513 0.00853958 10.2201 0.00592005C10.147 0.00392921 10.0738 -2.8779e-08 10 -2.8779e-08C9.92618 -2.8779e-08 9.85299 0.00392921 9.77986 0.00592005C9.64873 0.00853958 9.51817 0.0128359 9.38835 0.0207468C4.15833 0.337762 5.75571e-08 4.69158 5.75571e-08 10.0002C5.75571e-08 15.3084 4.15833 19.6622 9.38835 19.9796V20H9.78117ZM11.806 18.5888C13.2692 17.1539 14.3327 15.6567 14.9882 14.1068H17.7531C16.5496 16.3703 14.3844 18.0477 11.806 18.5888ZM18.7768 10.0002C18.7768 11.0103 18.6031 11.9798 18.2876 12.8838H15.4179C15.6651 12.0049 15.789 11.1115 15.7817 10.2035C15.7731 9.11072 15.58 8.0769 15.2729 7.11621H18.2876C18.6031 8.02053 18.7768 8.99007 18.7768 10.0002ZM17.7531 5.89321H14.805C13.9455 3.95476 12.6865 2.39923 11.7289 1.39537C14.3416 1.91933 16.5377 3.60704 17.7531 5.89321ZM10.6116 2.01227C11.4303 2.84476 12.5909 4.1989 13.4419 5.89315H10.6116V2.01227ZM10.6116 7.11621H13.9718C14.3238 8.07816 14.5506 9.12094 14.5584 10.2203C14.565 11.1207 14.4223 12.0089 14.1379 12.8838H10.6116V7.11621ZM10.6116 14.1068H13.6422C12.9838 15.4573 11.974 16.7723 10.6116 18.0427V14.1068ZM9.38835 12.8838H5.8621C5.57768 12.0089 5.43502 11.1207 5.44157 10.2203C5.44948 9.12094 5.67622 8.07816 6.02817 7.11621H9.3883V12.8838H9.38835ZM9.38835 5.89321H6.55815C7.40906 4.19895 8.56971 2.84444 9.38835 2.01196V5.89321ZM8.27119 1.39537C7.31351 2.39923 6.05458 3.95476 5.19513 5.89321H2.24694C3.46228 3.60704 5.65846 1.91933 8.27119 1.39537ZM1.2233 10.0002C1.2233 8.99007 1.39697 8.02047 1.71236 7.11621H4.72713C4.42002 8.07685 4.22723 9.11067 4.21832 10.2035C4.21109 11.1115 4.33499 12.0049 4.58217 12.8838H1.71236C1.39697 11.9798 1.2233 11.0103 1.2233 10.0002ZM2.24689 14.1068H5.01187C5.66768 15.6567 6.73083 17.1539 8.19439 18.5888C5.61561 18.0477 3.45044 16.3703 2.24689 14.1068ZM6.35776 14.1068H9.38835V18.0427C8.02601 16.7723 7.01625 15.4574 6.35776 14.1068Z" fill="#433099"/>
</svg>
