<svg width="15" height="13" viewBox="0 0 15 13" fill="none" xmlns="http://www.w3.org/2000/svg">
<path d="M5.00024 12.4578C5.00024 12.8947 4.68882 13.0926 4.30781 12.8966L0.415461 10.8985C0.187281 10.7813 -4.92702e-08 10.4711 -4.92702e-08 10.2085V0.41201C-4.92702e-08 0.0624128 0.249707 -0.0959919 0.554665 0.0602033L4.97333 2.32872C4.98984 2.33793 4.99988 2.3545 4.99988 2.37403V12.4578H5.00024Z" transform="translate(0 0.02771)" fill="#00C860"/>
<path d="M-5.47446e-07 -4.38446e-07V5.346L4.62747 7.72171L-5.47446e-07 -4.38446e-07Z" transform="translate(5.33887 3.00885)" fill="#00C860"/>
<path d="M8.04695 2.37742L3.51671 0.0521722C3.28781 -0.0649741 2.99182 0.0219642 2.85764 0.244837L4.70804e-07 5.0121L3.26987 10.4675L8.06884 2.45957C8.08678 2.43046 8.07637 2.39252 8.04695 2.37742Z" transform="translate(6.89941)" fill="#00C860"/>
<path d="M6.35038e-07 1.34907e-07V0.0534161L0.0466403 0.0777288L6.35038e-07 1.34907e-07Z" transform="translate(10.001 10.6594)" fill="#00C860"/>
<path d="M-3.28468e-08 7.78692L3.83637 9.75704C4.29453 9.99244 4.66658 9.8274 4.66658 9.38866V3.82235e-07L-3.28468e-08 7.78692Z" transform="translate(10.3335 3.09686)" fill="#00C860"/>
</svg>
