<svg width="9" height="11" viewBox="0 0 9 11" version="1.1" xmlns="http://www.w3.org/2000/svg" xmlns:xlink="http://www.w3.org/1999/xlink">
<g id="Canvas" fill="none">
<g id="Union">
<path fill-rule="evenodd" clip-rule="evenodd" d="M 5.08691 1.96436C 5.08691 0.883789 5.96289 0 7.04346 0C 8.12402 0 9 0.883789 9 1.96436C 9 3.04492 8.12402 3.92847 7.04346 3.92847C 6.63232 3.92847 6.25073 3.80054 5.93579 3.58252L 3.78857 5.20386C 3.8689 5.41846 3.91309 5.65063 3.91309 5.89282C 3.91309 6.07837 3.88721 6.2583 3.83887 6.42871L 5.72363 7.5874C 6.07153 7.26733 6.53491 7.07153 7.04346 7.07153C 8.12402 7.07153 9 7.95532 9 9.03589C 9 10.1165 8.12402 11 7.04346 11C 5.96289 11 5.08691 10.1165 5.08691 9.03589C 5.08691 8.88867 5.10327 8.74512 5.13403 8.60693L 3.19312 7.41382C 2.8562 7.69067 2.42554 7.85693 1.95654 7.85693C 0.875977 7.85693 0 6.97339 0 5.89282C 0 4.81226 0.875977 3.92847 1.95654 3.92847C 2.36816 3.92847 2.75 4.05688 3.06519 4.27539L 5.21167 2.6543C 5.1311 2.43945 5.08691 2.20679 5.08691 1.96436Z" fill="#DDDDDD"/>
</g>
</g>
</svg>

