<?xml version="1.0" encoding="UTF-8"?>
<svg width="11px" height="16px" viewBox="0 0 11 16" version="1.1" xmlns="http://www.w3.org/2000/svg" xmlns:xlink="http://www.w3.org/1999/xlink">
    <!-- Generator: Sketch 48.2 (47327) - http://www.bohemiancoding.com/sketch -->
    <title>Path 6</title>
    <desc>Created with Sketch.</desc>
    <defs></defs>
    <g id="br_news" stroke="none" stroke-width="1" fill="none" fill-rule="evenodd" transform="translate(-8.000000, -6.000000)">
        <path d="M11.4726599,6.32605685 L8.31760323,14.828782 C8.22153708,15.0876756 8.35353483,15.3754273 8.61242845,15.4714935 C8.66809518,15.4921494 8.72699607,15.5027251 8.7863716,15.5027251 L11.323207,15.5027251 C11.5993494,15.5027251 11.823207,15.7265827 11.823207,16.0027251 C11.823207,16.0481373 11.8170203,16.0933378 11.8048177,16.1370798 L10.4124082,21.1283399 C10.3382061,21.3943261 10.4936779,21.6701032 10.7596641,21.7443052 C10.9437916,21.7956712 11.1410922,21.737559 11.2679802,21.5945875 L18.2050942,13.7781742 C18.3883936,13.5716411 18.3695589,13.2556193 18.1630258,13.0723199 C18.0715369,12.9911231 17.9534567,12.9462813 17.8311328,12.9462813 L14.9664909,12.9462813 C14.6903485,12.9462813 14.4664909,12.7224236 14.4664909,12.4462813 C14.4664909,12.3317184 14.5058324,12.2206302 14.5779335,12.1316017 L18.8839308,6.81467955 C19.0577235,6.60008528 19.0246473,6.28523541 18.810053,6.1114427 C18.7210246,6.03934153 18.6099363,6 18.4953735,6 L11.9414283,6 C11.7323737,6 11.5453871,6.13006051 11.4726599,6.32605685 Z" id="Path-6" fill="#FFFFFF"></path>
    </g>
</svg>