<svg width="16" height="14" viewBox="0 0 16 14" fill="none" xmlns="http://www.w3.org/2000/svg">
<path fill-rule="evenodd" clip-rule="evenodd" d="M4.96981 0.120156C5.24899 -0.031083 5.58688 -0.0400623 5.87417 0.0961232L10.5242 2.30033L14.5485 0.120156C14.8507 -0.0435243 15.2196 -0.0397471 15.5181 0.130082C15.8166 0.299912 16 0.61037 16 0.945946V10.6324C16 10.9751 15.8088 11.2911 15.5003 11.4582L11.0302 13.8798C10.751 14.0311 10.4131 14.0401 10.1258 13.9039L5.47584 11.6997L1.45147 13.8798C1.14934 14.0435 0.780375 14.0397 0.48187 13.8699C0.183364 13.7001 0 13.3896 0 13.0541V3.36757C0 3.02485 0.191181 2.70894 0.499747 2.54178L4.96981 0.120156ZM5.47584 2.01319L1.95122 3.92262V11.4419L4.96981 9.80664C5.24899 9.6554 5.58688 9.64642 5.87417 9.78261L10.5242 11.9868L14.0488 10.0774V2.55806L11.0302 4.19336C10.751 4.3446 10.4131 4.35358 10.1258 4.21739L5.47584 2.01319Z" fill="white"/>
<path fill-rule="evenodd" clip-rule="evenodd" d="M0.97561 0C1.51442 0 1.95122 0.423514 1.95122 0.945946V10.6324C1.95122 11.1549 1.51442 11.5784 0.97561 11.5784C0.436795 11.5784 0 11.1549 0 10.6324V0.945946C0 0.423514 0.436795 0 0.97561 0Z" transform="translate(4.4707)" fill="white"/>
<path fill-rule="evenodd" clip-rule="evenodd" d="M0.97561 0C1.51442 0 1.95122 0.423514 1.95122 0.945946V10.6324C1.95122 11.1549 1.51442 11.5784 0.97561 11.5784C0.436795 11.5784 0 11.1549 0 10.6324V0.945946C0 0.423514 0.436795 0 0.97561 0Z" transform="translate(9.57812 2.42163)" fill="white"/>
</svg>
