<svg width="12" height="16" viewBox="0 0 12 16" fill="none" xmlns="http://www.w3.org/2000/svg">
<path fill-rule="evenodd" clip-rule="evenodd" d="M2.57227 8C2.57227 9.76392 4.11035 11.2 6.00098 11.2C7.8916 11.2 9.42969 9.76392 9.42969 8V3.19995C9.42969 1.43604 7.8916 0 6.00098 0C4.11035 0 2.57227 1.43604 2.57227 3.19995V8ZM4.28613 3.19995C4.28613 2.31689 5.05566 1.6001 6.00098 1.6001C6.94629 1.6001 7.71484 2.31689 7.71484 3.19995V8C7.71484 8.8833 6.94629 9.6001 6.00098 9.6001C5.05566 9.6001 4.28613 8.8833 4.28613 8V3.19995ZM9.76074 12.3552C11.126 11.3298 12 9.75977 12 7.99976V6.3999C12 5.95752 11.6172 5.59985 11.1426 5.59985C10.6689 5.59985 10.2861 5.95752 10.2861 6.3999V7.99976C10.2861 9.98584 8.72266 11.6389 6.6875 11.9485C6.65625 11.9531 6.62988 11.9568 6.59863 11.9609C6.40332 11.9866 6.20312 11.9998 6 11.9998C5.78809 11.9998 5.57617 11.9851 5.37207 11.957C5.29199 11.946 5.21582 11.9333 5.1377 11.9185C3.18652 11.5449 1.71387 9.92993 1.71387 7.99976V6.3999C1.71387 5.95752 1.33105 5.59985 0.857422 5.59985C0.382812 5.59985 0 5.95752 0 6.3999V7.99976C0 9.91943 1.04395 11.6147 2.62598 12.6221C2.63965 12.6306 2.64941 12.6375 2.66309 12.646C3.35645 13.0796 4.15527 13.3828 5.01074 13.5166C5.05566 13.5237 5.09766 13.5298 5.14258 13.5359V14.3999H2.57129C2.45312 14.3999 2.33691 14.4231 2.23438 14.4636C2.20898 14.4736 2.18652 14.4841 2.16211 14.4963C1.89453 14.6316 1.71387 14.8958 1.71387 15.2C1.71387 15.6423 2.09766 15.9998 2.57129 15.9998H9.42871C9.90234 15.9998 10.2861 15.6423 10.2861 15.2C10.2861 14.8716 10.0752 14.5898 9.77246 14.4666C9.76953 14.4653 9.76855 14.4648 9.76562 14.4636C9.66309 14.4231 9.54688 14.3999 9.42871 14.3999H6.85742V13.5359C6.94824 13.5237 7.03809 13.5095 7.12793 13.4937C7.94629 13.3477 8.70898 13.0442 9.37402 12.6221C9.50781 12.5371 9.63477 12.4497 9.76074 12.3552Z" fill="white"/>
</svg>
