<svg width="232" height="72" viewBox="0 0 232 72" version="1.1" xmlns="http://www.w3.org/2000/svg" xmlns:xlink="http://www.w3.org/1999/xlink">
<title>Vector</title>
<desc>Created using Figma</desc>
<g id="Canvas" transform="translate(6718 3283)">
<g id="Vector">
<use xlink:href="#path0_fill" transform="translate(-6718 -3283)" fill="#5C29C7"/>
</g>
</g>
<defs>
<path id="path0_fill" d="M 38.6765 28.1291L 41.0645 27.9757C 43.4262 27.8196 45.7866 27.6648 48.1524 27.5324C 49.7098 27.4348 51.2658 27.4083 52.8218 27.2452C 54.0498 27.1127 55.2583 26.8032 56.4765 26.5871C 56.9223 26.5035 57.2282 26.6401 57.3044 26.9845C 57.3805 27.3288 57.1715 27.5854 56.7354 27.6565C 53.3465 28.2309 50.0296 29.1901 46.6019 29.5219C 43.8568 29.7868 41.113 30.021 38.365 30.2552C 38.2717 30.248 38.179 30.2755 38.1045 30.3326C 38.03 30.3896 37.9788 30.4722 37.9608 30.5647C 35.8497 37.2902 33.7288 44.0185 31.5969 50.7524C 30.3704 54.6463 29.13 58.5375 27.88 62.4244C 27.7637 62.7869 27.5989 63.1355 27.4619 63.4896L 27.3193 63.4589C 27.4342 62.6935 27.5145 61.9197 27.6654 61.1585C 28.5818 56.5494 30.0714 52.0964 31.5 47.628L 36.8353 30.9007C 36.8893 30.7334 36.9322 30.5605 36.9959 30.3389C 36.3771 30.3751 35.8123 30.4141 35.2433 30.4406C 29.3294 30.7111 23.4196 31.0332 17.5001 31.2242C 14.3881 31.3259 11.2746 31.2242 8.14047 31.1572C 6.28266 31.1572 4.43178 30.9398 2.6252 30.5117C 2.34556 30.4365 2.07008 30.3347 1.7849 30.2608C 0.63312 29.9583 0.1749 29.1134 0.0240051 28.0371C -0.0480241 27.5358 0.0430546 27.0245 0.283615 26.5796C 0.524175 26.1348 0.901284 25.7804 1.35852 25.5694C 2.24728 25.0619 3.02528 24.4164 3.91542 23.934C 6.81979 22.36 9.91797 21.2293 13.0175 20.1056C 13.7203 19.8148 14.4061 19.4843 15.0719 19.1157C 16.3663 18.4702 17.7008 17.8917 18.937 17.1527C 19.9545 16.5435 20.8585 15.739 21.8179 15.0308C 23.0223 14.1469 23.5968 12.7806 24.4288 11.6095C 25.6023 9.84087 26.9426 8.19042 28.4309 6.68108C 29.7737 5.46397 31.3242 4.4978 33.0117 3.82999C 34.5761 3.11339 36.1819 2.49577 37.8224 1.97713C 40.7349 1.12162 43.733 0.595105 46.7611 0.40729C 49.1671 0.272055 51.5745 0.139608 53.9778 0.00994968C 55.6321 -0.0737009 57.2061 0.386377 58.7856 0.779535C 60.4538 1.17269 62.0735 1.74849 63.6143 2.49855C 63.7015 2.54317 63.7845 2.59336 63.8634 2.64913C 65.0678 3.53303 66.286 4.36815 67.4738 5.26181C 67.9445 5.62012 68.364 6.0788 68.7862 6.47753C 69.5428 7.21195 70.3401 7.90271 71.1742 8.54649C 71.8539 9.02748 72.6956 9.27983 73.4238 9.70366C 74.3624 10.1888 75.3812 10.4983 76.4306 10.6196C 78.5694 10.9779 80.7221 11.2651 82.8568 11.6318C 86.7828 12.308 90.6784 13.1082 94.4175 14.5498C 95.3691 14.869 96.2541 15.3619 97.0284 16.0039C 97.6043 16.4543 97.9393 17.1416 97.9393 17.8694C 97.9393 18.5971 97.6043 19.2844 97.0284 19.7348C 95.8535 20.7729 94.4397 21.4989 92.9155 21.8469C 91.6474 22.1662 90.3544 22.3558 89.0683 22.6082L 87.1441 22.9888C 86.9157 23.032 86.672 23.0724 86.6 22.7713C 86.5294 22.4715 86.7523 22.3823 86.9918 22.3516C 90.0152 21.971 92.5541 20.4904 95.0321 18.8676C 95.2869 18.7003 95.5264 18.5093 95.7479 18.2974C 96.0939 17.9711 96.1161 17.6979 95.7479 17.3828C 95.359 17.0418 94.9337 16.7453 94.4798 16.4989C 92.6544 15.6042 90.7434 14.8988 88.7763 14.3937C 84.8395 13.3179 80.8243 12.5581 76.7684 12.1212C 72.1612 11.583 67.5361 11.597 62.911 11.6053C 59.5681 11.5849 56.2263 11.7324 52.898 12.0473C 50.1161 12.3232 47.3455 12.7036 44.5919 13.1877C 40.5883 13.9085 36.5861 14.7659 32.584 15.5927C 31.6952 15.7781 30.8051 16.0876 29.9163 16.3093C 27.3816 16.9366 24.8288 17.4943 22.3121 18.183C 18.0644 19.3101 13.8799 20.6663 9.77677 22.2457C 7.89959 22.9971 6.07224 23.8406 4.26705 24.6994C 3.5458 25.0619 2.87716 25.5178 2.27912 26.056C 1.89799 26.434 1.59539 26.8848 1.38898 27.3818C 1.29915 27.5499 1.27182 27.7448 1.31192 27.9313C 1.35201 28.1179 1.4569 28.2839 1.6077 28.3996C 1.65616 28.4386 1.6077 28.5934 1.6077 28.8011C 2.13237 28.8987 2.70965 29.0269 3.29246 29.1022C 5.78665 29.3734 8.29741 29.4573 10.804 29.3532C 15.7752 29.2389 20.7505 29.119 25.719 28.9112C 29.5426 28.7579 33.3675 28.4693 37.1911 28.2574C 37.3525 28.27 37.5126 28.2205 37.639 28.1188C 37.7655 28.017 37.8488 27.8707 37.8722 27.7094C 38.2668 26.339 38.6987 24.9824 39.1167 23.6161C 39.1444 23.5227 39.161 23.4307 39.161 23.4433C 38.97 23.2174 38.7167 23.0417 38.7167 22.8912C 38.7376 22.7734 38.7848 22.662 38.8549 22.5654C 38.9249 22.4687 39.0159 22.3894 39.1209 22.3335C 39.279 22.2708 39.4199 22.1707 39.5314 22.0416C 39.643 21.9125 39.722 21.7582 39.7619 21.5918C 39.856 21.3297 39.9723 21.0774 40.1079 20.8348C 40.1855 20.7204 40.2754 20.6131 40.3751 20.5169L 40.5302 20.5741L 40.371 21.826C 40.4446 21.8342 40.5189 21.8342 40.5925 21.826C 44.6209 20.8836 48.7089 20.2562 52.808 19.7069C 54.5301 19.4782 56.2689 19.3416 58.0021 19.2133C 58.8161 19.1506 58.8922 19.3723 59.039 20.1502C 59.2466 20.8613 59.518 21.55 59.853 22.2094C 59.9554 22.4576 60.0662 22.6974 60.1589 22.9483C 60.253 23.1993 60.2655 23.3903 60.3375 23.5855C 61.4491 26.714 62.6853 29.8035 63.6599 32.978C 65.4693 38.8796 67.118 44.8299 68.8623 50.7496C 69.6439 53.6223 70.644 56.4302 71.8539 59.1481C 72.0893 59.6472 72.362 60.1338 72.6236 60.6204C 72.9531 61.2338 72.8327 61.8138 72.3038 62.0968C 72.179 62.1631 72.0416 62.2018 71.9008 62.2105C 71.76 62.2191 71.6189 62.1975 71.4871 62.147C 71.3563 62.0971 71.2377 62.0195 71.1393 61.9195C 71.0409 61.8194 70.965 61.6992 70.9167 61.567C 70.2799 60.2147 69.6929 58.8386 69.0894 57.4723C 69.0894 57.4333 69.0617 57.3929 69.0437 57.358C 68.4761 56.0057 68.1106 54.5906 67.6787 53.1936C 67.2475 51.7762 66.8368 50.3526 66.4466 48.9232C 65.2561 44.6013 64.1071 40.2682 62.8888 35.9574C 61.9115 32.5542 60.8359 29.1775 59.7768 25.7911C 59.3061 24.2881 58.7635 22.8019 58.2471 21.313C 58.1813 21.0908 58.0902 20.877 57.9758 20.6758C 57.9338 20.6145 57.8799 20.5625 57.8173 20.523C 57.7547 20.4834 57.6847 20.4571 57.6117 20.4458C 56.9247 20.3721 56.2325 20.3605 55.5435 20.4109C 51.2963 20.9812 47.0505 21.5862 42.8074 22.1788C 42.0114 22.2945 41.2196 22.4855 40.4374 22.6667C 40.3646 22.6868 40.297 22.7229 40.2396 22.7723C 40.1822 22.8217 40.1363 22.8832 40.1052 22.9525C 39.6013 24.6534 39.1569 26.3515 38.6765 28.1291ZM 220.567 36.4175C 221.011 36.3687 221.429 36.3157 221.861 36.2767C 222.292 36.2362 222.822 36.2279 223.292 36.1484C 223.796 36.0423 224.32 36.109 224.782 36.338L 224.649 36.5374C 225.397 36.9277 225.977 37.5774 226.277 38.3637C 227.005 37.8939 227.703 37.4436 228.406 37.0016C 229.109 36.5597 229.843 36.0731 230.585 35.6535C 230.959 35.4708 231.347 35.323 231.747 35.2115C 231.799 35.2115 231.871 35.2115 232 35.2505C 231.913 35.39 231.813 35.5196 231.702 35.6409C 230.843 36.377 229.976 37.1132 229.105 37.8507C 228.812 38.0933 228.487 38.2926 228.189 38.5436C 227.823 38.9061 227.422 39.2323 226.993 39.5167C 225.996 40.0298 225.658 40.9388 225.343 41.8868C 225.199 42.2592 225.036 42.6236 224.854 42.9785C 224.472 43.6407 224.14 44.3308 223.857 45.0419C 223.744 45.3012 223.58 45.534 223.377 45.732C 222.884 46.3245 222.354 46.8947 221.875 47.4998C 221.282 48.2471 220.687 48.9985 219.65 49.1407C 218.872 49.2467 218.072 49.2899 217.387 48.795C 217.194 48.6201 217.028 48.4177 216.894 48.1941C 216.785 48.0583 216.692 47.91 216.617 47.7521C 216.583 47.6842 216.563 47.6101 216.558 47.5342C 216.552 47.4584 216.562 47.3822 216.587 47.3102C 216.919 46.627 217.286 45.9592 217.686 45.3123C 218.027 44.7805 218.421 44.2853 218.862 43.8345C 219.744 42.9529 220.647 42.0938 221.572 41.2581C 222.016 40.851 222.559 40.547 223.039 40.1664C 223.203 40.0361 223.329 39.8637 223.405 39.6673C 223.537 39.2909 223.618 38.8977 223.723 38.4781C 223.256 38.4493 222.794 38.5854 222.416 38.8629C 221.826 39.1796 221.182 39.3821 220.518 39.4596C 220.034 39.5432 219.571 39.7593 219.085 39.8569C 218.715 39.9141 218.34 39.9332 217.965 39.9141C 217.796 39.9065 217.631 39.8663 217.477 39.7956C 217.28 39.7063 217.183 39.7956 217.103 39.9447C 216.747 40.5958 216.373 41.2316 216.058 41.8994C 215.528 43.083 214.772 44.1506 213.835 45.0419C 213.54 45.3625 213.275 45.7083 213.043 46.0763C 212.878 46.298 212.598 46.4667 212.697 46.8055C 212.697 46.8334 212.665 46.8808 212.641 46.9073C 212.375 47.2307 212.122 47.5569 211.838 47.8623C 211.659 48.1338 211.406 48.3473 211.109 48.4771C 210.783 48.5831 210.566 49.0027 210.295 49.2718C 210.17 49.4168 210.018 49.5367 209.85 49.6259C 209.309 49.8741 208.751 50.086 208.182 50.263C 207.662 50.3829 207.113 50.2909 206.661 50.0065C 205.728 49.5016 204.905 48.8149 204.238 47.9864C 203.784 47.3746 203.507 46.6477 203.438 45.8867C 203.402 45.6302 203.376 45.3737 203.34 45.0823C 203.295 45.1048 203.253 45.1329 203.215 45.1659C 202.393 46.1558 201.561 47.1331 200.765 48.1355C 200.413 48.5789 200.178 49.1087 199.826 49.5464C 199.581 49.8504 199.279 50.1041 198.938 50.2937C 198.417 50.5809 197.852 50.7886 197.304 51.0271C 197.275 51.0312 197.246 51.0312 197.217 51.0271C 197.025 51.0387 196.834 50.9874 196.674 50.8808C 196.513 50.7743 196.392 50.6181 196.327 50.4359C 196.26 50.2017 196.162 50.1083 195.931 50.1961C 195.677 49.7193 195.438 49.2551 195.179 48.8047C 195.118 48.7144 195.077 48.6125 195.057 48.5052C 195.037 48.398 195.04 48.2878 195.064 48.1815C 195.076 47.9782 195.076 47.7743 195.064 47.5709C 195.093 47.4415 195.135 47.3154 195.189 47.1945C 195.189 47.1289 195.259 47.0453 195.237 46.9965C 194.944 46.3956 195.237 45.8296 195.394 45.29C 195.981 43.4427 196.62 41.6164 197.243 39.783C 197.537 38.9242 197.834 38.0668 198.132 37.2136C 198.266 36.8427 198.453 36.4928 198.602 36.1261C 198.656 36.0066 198.682 35.8765 198.679 35.7455C 198.679 35.5071 198.479 35.4234 198.297 35.574C 198.034 35.7845 197.786 36.0132 197.555 36.2585C 196.257 37.765 195.106 39.3934 194.117 41.1214C 193.53 42.0667 192.903 42.991 192.294 43.9237C 191.924 44.4953 191.569 45.0781 191.177 45.6302C 190.937 45.962 190.901 45.923 190.568 45.6999C 190.465 45.6344 190.252 45.732 190.087 45.7543L 190.087 45.8379C 190.031 45.7585 189.995 45.6386 189.918 45.6079C 189.6 45.4713 189.665 45.2454 189.737 44.9986C 190.008 44.0701 190.28 43.1416 190.537 42.2089C 190.759 41.3905 190.982 40.5735 191.169 39.7509C 191.355 38.9284 191.52 38.2215 191.715 37.4617C 191.868 36.8636 192.071 36.285 192.222 35.6925C 192.329 35.277 192.396 34.8532 192.481 34.4336L 192.37 34.375L 192.005 34.8922C 190.845 36.5011 189.737 38.1546 188.505 39.7063C 187.796 40.6781 187.183 41.714 186.672 42.8014C 186.134 43.752 185.71 44.7639 185.41 45.8156C 185.369 46.0512 185.354 46.2896 185.361 46.5266C 185.183 46.8013 185.018 47.0453 184.863 47.3018C 184.708 47.5569 184.467 47.4468 184.281 47.3673C 184.113 47.2826 183.962 47.1673 183.836 47.0272C 183.783 46.951 183.704 46.898 183.613 46.8791C 183.523 46.8602 183.429 46.8767 183.351 46.9254C 183.168 47.0272 183.066 46.9658 182.977 46.7748C 182.752 46.3225 182.684 45.8066 182.786 45.3109C 182.911 44.7017 182.947 44.0701 183.04 43.4511C 183.134 42.8321 183.249 42.2172 183.365 41.6024C 183.48 40.989 183.635 40.2779 183.777 39.6227C 183.991 38.637 184.223 37.6555 184.418 36.674C 184.446 36.4732 184.464 36.2711 184.471 36.0689C 184.063 36.285 183.697 36.4356 183.377 36.6517C 182.256 37.3948 181.154 38.1644 180.038 38.9158C 179.727 39.1236 179.385 39.2923 179.073 39.4986C 178.963 39.5749 178.882 39.6879 178.846 39.8179C 178.502 41.4307 178.036 43.0149 177.454 44.5567C 177.241 45.1213 177.059 45.6971 176.867 46.2715C 176.788 46.5057 176.734 46.74 176.424 46.8152C 176.383 46.8351 176.346 46.8635 176.317 46.8986C 176.288 46.9337 176.266 46.9746 176.254 47.0188C 175.985 47.7396 175.423 48.3154 174.706 48.6054C 174.28 48.8151 173.811 48.9185 173.337 48.9068C 172.863 48.8952 172.399 48.7688 171.984 48.5384C 171.425 48.2777 170.86 48.0226 170.326 47.7215C 169.873 47.4793 169.512 47.0937 169.299 46.6242C 169.023 46.0066 168.699 45.4085 168.462 44.777C 168.325 44.3166 168.221 43.847 168.151 43.3716C 168.065 43.4352 167.988 43.5092 167.92 43.5919C 167.636 44.0339 167.365 44.4758 167.079 44.9192C 167.002 45.0144 166.918 45.103 166.826 45.1841C 166.45 45.5226 166.115 45.9055 165.829 46.3245C 165.567 46.7635 165.281 47.1871 164.971 47.5932C 164.506 48.3439 163.869 48.9716 163.113 49.4237C 162.692 49.6709 162.285 49.9422 161.895 50.2365C 161.213 50.6991 160.425 50.9788 159.605 51.0494C 159.328 51.1051 159.046 51.1428 158.764 51.1609C 158.285 51.1609 157.804 51.0898 157.324 51.0494C 156.587 50.9772 155.871 50.7577 155.22 50.4039C 155.046 50.2852 154.896 50.1354 154.777 49.9619C 154.651 49.7952 154.474 49.6755 154.273 49.6217C 154.099 49.5788 153.938 49.4928 153.805 49.3716C 153.672 49.2504 153.571 49.0977 153.511 48.9274C 153.41 48.6235 153.344 48.3042 153.254 47.9947C 153.129 47.5528 152.978 47.1108 152.876 46.6702C 152.739 46.1482 152.572 45.6343 152.378 45.1311C 152.245 44.5189 152.196 43.8912 152.232 43.2657C 152.201 42.6293 152.178 41.9926 152.164 41.3556C 152.151 40.7185 152.164 39.9894 152.164 39.309C 152.196 38.9172 152.249 38.5283 152.325 38.1421C 152.419 37.5537 152.516 36.971 152.606 36.3743C 152.611 36.287 152.611 36.1994 152.606 36.1121C 152.09 36.4091 151.595 36.6517 151.143 36.957C 150.204 37.5886 149.292 38.2564 148.359 38.9019C 148.061 39.111 147.722 39.2644 147.42 39.4637C 147.318 39.5341 147.243 39.6374 147.207 39.7565C 146.944 40.7715 146.731 41.7976 146.437 42.8056C 146.188 43.663 145.846 44.4981 145.549 45.343C 145.424 45.6971 145.317 46.054 145.171 46.3998C 145.081 46.5457 144.97 46.6769 144.841 46.7887C 144.775 46.864 144.658 46.9212 144.636 47.0049C 144.446 47.577 144.042 48.0523 143.511 48.3307C 143.224 48.5602 142.891 48.7238 142.534 48.8103C 142.178 48.8967 141.807 48.9039 141.448 48.8312C 140.991 48.7237 140.545 48.5758 140.114 48.3893C 139.495 48.088 138.892 47.7543 138.308 47.3896C 138.12 47.2682 137.967 47.0989 137.864 46.8989C 137.491 46.2061 137.156 45.4935 136.859 44.7644C 136.529 43.8211 136.514 42.7953 136.815 41.8422C 137.299 40.0591 137.876 38.3038 138.545 36.582C 139.069 35.1803 139.821 33.8758 140.768 32.7215C 141.346 31.991 142.093 31.411 142.947 31.029C 143.461 30.7474 144.089 30.7641 144.588 31.0736C 144.823 31.2172 145.068 31.3431 145.322 31.45C 145.805 31.6996 146.183 32.1109 146.387 32.6114C 146.767 33.381 147.278 34.0892 147.447 34.9536C 147.509 35.3844 147.548 35.8166 147.563 36.2502L 147.563 37.1118C 147.826 36.9751 148.056 36.8692 148.269 36.7353C 149.731 35.8555 151.248 35.0704 152.809 34.3848C 152.893 34.343 152.957 34.27 152.988 34.1812C 153.117 33.703 153.254 33.2304 153.34 32.7452C 153.531 31.8581 153.829 30.998 154.228 30.1841C 154.789 28.921 155.376 27.6607 156.038 26.4407C 156.657 25.3003 157.372 24.2031 158.08 23.1156C 158.609 22.3112 159.196 21.5388 159.796 20.7818C 160.036 20.5267 160.303 20.2966 160.592 20.0972C 160.824 19.9076 161.035 19.7166 161.294 19.5354C 161.53 19.3235 161.79 19.1436 162.072 19.0014C 162.312 18.9193 162.574 18.9302 162.806 19.0321C 162.985 19.1095 163.18 19.1449 163.375 19.1357C 163.57 19.1265 163.76 19.073 163.931 18.9791C 164.391 18.7663 164.904 18.6969 165.403 18.7796C 165.902 18.8623 166.365 19.0935 166.733 19.4434C 166.951 19.6427 167.193 19.8142 167.453 19.955C 167.899 20.192 168.223 20.6075 168.343 21.0955C 168.568 21.9236 168.691 22.7755 168.712 23.6329C 168.712 24.0971 168.796 24.5614 168.828 25.0298C 168.834 25.9017 168.684 26.7676 168.383 27.5854C 168.275 27.952 168.138 28.3103 168.028 28.677C 167.875 29.1678 167.463 29.4647 167.138 29.8397C 167.041 29.9596 166.902 30.0433 166.818 30.1674C 166.44 30.7013 165.883 30.6832 165.328 30.6442C 165.051 30.6442 164.941 30.4629 165.035 30.2022C 165.187 29.7742 165.364 29.356 165.564 28.9475C 165.936 28.1618 166.201 27.3288 166.351 26.4714C 166.466 25.8887 166.6 25.3087 166.67 24.7036C 166.776 23.9814 166.825 23.2537 166.814 22.5245C 166.756 22.0715 166.604 21.6358 166.368 21.246C 166.084 20.694 165.479 20.7023 165.003 21.0927C 164.452 21.5332 164.172 22.1885 163.714 22.7002C 161.935 24.6632 160.757 26.9803 159.591 29.3323C 159.356 29.8007 159.075 30.251 158.862 30.7278C 158.649 31.206 158.506 31.7623 158.333 32.2796C 158.056 33.0673 157.752 33.8494 157.541 34.6538C 157.284 35.6493 157.097 36.6559 156.902 37.6694C 156.799 38.2871 156.738 38.9117 156.719 39.5376C 156.73 39.8583 156.769 40.179 156.834 40.494C 156.841 40.5687 156.841 40.6439 156.834 40.7185C 156.71 41.4496 156.701 42.1958 156.807 42.9297C 156.824 43.1513 156.809 43.3744 156.763 43.5919C 156.715 44.3796 157.04 45.0948 157.181 45.8421C 157.342 46.6689 158.044 47.0495 158.591 47.536C 158.859 47.6947 159.175 47.7492 159.481 47.6894C 160.056 47.5996 160.625 47.4701 161.183 47.3018C 162.393 46.9602 163.26 46.1335 164.074 45.237C 164.679 44.5692 165.296 43.9112 165.915 43.2657C 166.462 42.6857 167.053 42.142 167.569 41.5369C 168.109 40.9011 168.612 40.2333 169.071 39.539C 169.232 39.203 169.354 38.8489 169.437 38.4864C 169.717 37.7224 170.002 36.957 170.299 36.1972C 170.81 34.8668 171.552 33.6391 172.492 32.5723C 173.123 31.783 173.966 31.1935 174.92 30.8742C 175.117 30.7977 175.329 30.7687 175.539 30.7896C 175.749 30.8104 175.951 30.8804 176.129 30.9941C 176.357 31.1308 176.595 31.2507 176.84 31.3524C 177.329 31.5685 177.722 31.9519 177.948 32.4343C 178.336 33.2346 178.891 33.9595 179.064 34.849C 179.134 35.3063 179.174 35.7692 179.184 36.232L 179.184 37.0853C 179.673 36.8023 180.101 36.5332 180.549 36.3032C 181.648 35.7315 182.772 35.1794 183.867 34.6273C 184.155 34.481 184.459 34.3666 184.756 34.2202C 184.839 34.1704 184.9 34.0921 184.929 34C 185.347 32.6351 185.763 31.2674 186.175 29.8969C 186.441 29.013 187.202 28.8847 187.932 29.066C 188.336 29.1565 188.703 29.3686 188.985 29.674C 189.267 29.9795 189.45 30.364 189.51 30.7766C 189.579 31.2367 189.547 31.7052 189.416 32.1513C 189.1 33.3726 188.732 34.5744 188.376 35.7817C 188.322 35.9672 188.248 36.1442 188.185 36.3255L 188.274 36.3784C 188.385 36.2711 188.491 36.1575 188.589 36.0383C 189.43 34.9104 190.258 33.7741 191.11 32.656C 191.717 31.9129 192.475 31.31 193.334 30.8882C 193.539 30.7766 193.699 30.8603 193.894 30.9676C 195.108 31.6131 194.909 32.7355 194.829 33.7699C 194.757 34.5844 194.651 35.3956 194.513 36.2014C 194.445 36.6085 194.308 37.0016 194.21 37.4004C 194.182 37.5091 194.166 37.6234 194.148 37.7392L 194.314 37.8674C 194.328 37.7754 194.355 37.6862 194.397 37.6025C 195.227 36.5011 196.025 35.3928 196.909 34.3262C 197.485 33.7058 198.094 33.1161 198.733 32.5584C 199.106 32.1959 199.488 31.8432 199.836 31.4528C 199.938 31.3334 200.064 31.237 200.206 31.17C 200.348 31.103 200.502 31.0668 200.658 31.0638C 200.957 31.0485 201.253 31.0131 201.547 30.9579C 202.101 30.8533 202.668 31.0708 203.006 31.5197C 203.384 32.1694 203.726 32.8456 204.055 33.5092C 204.27 34.0223 204.217 34.6078 203.913 35.0735C 203.47 35.9574 202.958 36.7716 202.58 37.6555C 202.241 38.407 202.019 39.2072 201.744 39.9852C 201.249 41.3947 200.765 42.8014 200.266 44.2109C 199.862 45.3023 199.351 46.3508 198.741 47.3408C 198.71 47.3924 198.685 47.4471 198.666 47.504C 198.659 47.5613 198.659 47.6195 198.666 47.6768C 198.968 47.4259 199.253 47.2349 199.497 46.9825C 200.182 46.3105 200.881 45.6567 201.525 44.9359C 202.17 44.2151 202.592 43.5389 203.207 42.9199C 203.726 42.3943 203.788 41.7446 203.931 41.1075C 204.159 39.9921 204.504 38.9047 204.958 37.8591C 205.346 37.0016 205.692 36.1261 206.074 35.2729C 206.61 34.1227 207.269 33.0338 208.04 32.0244C 208.795 31.0109 209.517 29.9722 210.291 28.9781C 210.669 28.4539 211.154 28.0168 211.714 27.6955C 211.969 27.5479 212.21 27.3766 212.434 27.1838C 212.54 27.089 212.668 27.0233 212.807 26.993C 212.946 26.9627 213.09 26.9689 213.225 27.011C 213.425 27.0765 213.639 27.0765 213.839 27.011C 214.185 26.8595 214.568 26.8136 214.94 26.8787C 215.313 26.9439 215.658 27.1173 215.933 27.3776C 216.523 27.7875 216.819 28.4999 216.695 29.204C 216.472 30.2287 216.639 31.3385 216.048 32.2991C 215.752 32.787 215.456 33.282 215.159 33.7825C 214.964 34.1241 214.804 34.4768 214.608 34.817C 214.305 35.344 213.981 35.8612 213.684 36.3868C 213.061 37.4366 212.344 38.4279 211.539 39.348C 210.593 40.4871 209.629 41.6119 208.649 42.7219C 208.395 43.005 208.044 43.1987 207.76 43.4609C 207.643 43.5688 207.565 43.7131 207.538 43.8707C 207.455 44.5037 207.411 45.1422 207.404 45.7808C 207.45 46.2269 207.52 46.6689 207.617 47.1066C 207.666 47.4831 207.947 47.5095 208.209 47.5137C 208.4 47.5132 208.587 47.456 208.747 47.3492C 209.232 47.0285 209.695 46.6786 210.134 46.298C 210.579 45.8867 210.956 45.3918 211.397 44.9721C 212.882 43.4422 214.254 41.8048 215.501 40.073C 215.695 39.7886 215.875 39.493 216.036 39.1891L 215.738 39.0525C 215.21 38.8098 214.778 38.396 214.51 37.8772C 214.451 37.7372 214.438 37.5816 214.474 37.4338C 214.757 36.3215 215.38 35.3265 216.253 34.5883C 217.26 33.6837 218.299 32.8151 219.366 31.984C 220.193 31.3427 221.083 30.7822 221.927 30.1674C 222.85 29.5173 223.834 28.9615 224.866 28.5083C 224.973 28.4521 225.091 28.4228 225.211 28.4228C 225.331 28.4228 225.449 28.4521 225.556 28.5083C 225.7 28.5641 225.849 28.6059 226 28.6282C 226.179 28.6463 226.353 28.6909 226.517 28.7621C 227.112 29.1413 227.762 29.487 227.998 30.2245C 228.026 30.3166 228.026 30.4155 227.998 30.5076C 227.936 30.6888 227.837 30.8561 227.785 31.0373C 227.754 31.1555 227.686 31.2604 227.591 31.3363C 227.497 31.4122 227.38 31.4551 227.259 31.4584C 226.998 31.4835 226.748 31.5685 226.525 31.7052C 225.117 32.7353 223.716 33.7758 222.323 34.8267C 221.745 35.2687 221.176 35.7106 220.603 36.1526C 220.562 36.1911 220.527 36.2341 220.496 36.2808L 220.567 36.4175ZM 175.729 35.0651C 175.662 35.0651 175.636 35.0428 175.622 35.0651C 175.567 35.0916 175.514 35.1209 175.462 35.153C 175.004 35.4646 174.638 35.8934 174.4 36.3952C 173.462 38.1926 172.717 40.0854 172.177 42.0416C 171.916 42.9555 171.935 43.9276 172.233 44.8299C 172.368 45.2719 172.501 45.2942 172.838 44.9721C 173.665 44.2643 174.234 43.3002 174.458 42.2312C 174.484 42.0639 174.527 41.8952 174.559 41.7265C 174.587 41.4142 174.639 41.1033 174.715 40.798C 175.304 39.2407 175.64 37.5983 175.712 35.9365C 175.733 35.6395 175.729 35.3481 175.729 35.0693L 175.729 35.0651ZM 209.356 38.1602L 209.453 38.195C 209.521 38.0975 209.591 38.0054 209.654 37.9023C 209.921 37.4924 210.18 37.0769 210.454 36.6754C 211.465 35.2018 212.5 33.7518 213.475 32.2531C 213.868 31.5908 214.217 30.9021 214.518 30.1939C 214.545 30.0478 214.545 29.898 214.518 29.7519C 214.186 29.8537 213.893 29.9373 213.603 30.0391C 213.541 30.0614 213.493 30.1534 213.457 30.2204C 213.012 31.029 212.602 31.8376 212.171 32.6462C 211.829 33.2931 211.478 33.933 211.127 34.5744C 210.944 34.9104 210.761 35.2505 210.57 35.5865C 210.45 35.7985 210.303 35.9978 210.196 36.2139C 209.929 36.7632 209.676 37.3195 209.423 37.8772C 209.395 37.9678 209.373 38.0612 209.356 38.156L 209.356 38.1588L 209.356 38.1602ZM 109.274 39.2295C 109.132 39.2957 109.007 39.3951 108.911 39.5195C 108.814 39.6439 108.749 39.7897 108.719 39.9447C 108.541 40.5705 108.238 41.1531 107.829 41.6568C 107.278 42.4738 106.717 43.288 106.122 44.0785C 105.709 44.6856 105.232 45.246 104.699 45.7501C 103.99 46.3609 103.216 46.8915 102.391 47.3325C 102.13 47.4344 101.847 47.4699 101.569 47.4358C 101.291 47.4018 101.025 47.2993 100.795 47.1373C 99.9691 46.6866 99.2946 45.999 98.8571 45.1617C 98.6716 44.6961 98.6356 44.1858 98.7491 43.6979C 98.8516 42.991 98.99 42.2883 99.1589 41.5941C 99.3559 40.6572 99.6083 39.7331 99.9147 38.8266C 100.358 37.5886 100.938 36.3868 101.475 35.1794C 101.955 34.1143 102.436 33.045 102.974 32.0105C 103.32 31.259 103.77 30.5591 104.307 29.929C 104.766 29.3406 105.577 29.1552 106.245 29.487C 106.463 29.6487 106.619 29.8774 106.691 30.1367C 106.821 30.4616 106.902 30.8045 106.926 31.1531C 106.921 31.4245 106.86 31.692 106.749 31.9394C 106.472 32.6643 106.189 33.3893 105.859 34.1003C 105.264 35.4625 104.623 36.8023 104.046 38.1686C 103.499 39.4512 103.005 40.7506 102.498 42.0499C 102.369 42.3845 102.285 42.7442 102.174 43.0886C 102.056 43.4832 102.11 43.9084 102.325 44.2597C 102.476 44.5427 102.596 44.5567 102.84 44.3392C 103.787 43.4558 104.616 42.4513 105.304 41.3515C 106.576 39.4108 107.7 37.3725 108.772 35.3342C 109.049 34.8044 109.364 34.2955 109.6 33.7476C 109.732 33.3797 109.826 32.9989 109.879 32.6114C 109.96 32.214 110.022 31.8167 110.08 31.418C 110.124 31.0861 110.155 30.7557 110.177 30.4239C 110.224 30.0255 110.418 29.6594 110.72 29.3978C 110.86 29.2724 111.041 29.2032 111.229 29.2032C 111.417 29.2032 111.598 29.2724 111.739 29.3978C 112.186 29.6941 112.564 30.0849 112.847 30.543C 113.129 31.0011 113.309 31.5157 113.375 32.0509C 113.438 32.9334 113.438 33.8201 113.375 34.7026C 113.375 35.468 113.375 36.2362 113.353 37.0016C 113.295 38.1239 113.224 39.2463 113.108 40.3658C 113.033 41.1047 112.868 41.8297 112.73 42.6508C 112.989 42.5142 113.175 42.4027 113.38 42.3023C 113.865 42.0541 114.354 41.8115 114.842 41.5717C 115.357 41.3027 115.721 40.8147 115.829 40.2473C 116.163 39.0748 116.51 37.9078 116.884 36.7535C 117.194 35.7901 117.56 34.8393 117.881 33.8759C 118.125 33.1328 118.324 32.3771 118.551 31.6215C 118.592 31.4221 118.606 31.2186 118.595 31.0164C 118.58 30.8801 118.595 30.742 118.641 30.6125C 118.686 30.4831 118.76 30.3657 118.857 30.2692C 118.954 30.1721 119.072 30.0981 119.201 30.0523C 119.33 30.0065 119.468 29.9901 119.604 30.0043C 120.573 30.0043 121.228 30.5382 121.801 31.2102C 122.376 31.8822 122.354 32.6685 122.131 33.4785C 122.024 33.8633 121.94 34.2565 121.846 34.6455L 121.93 34.6985C 122.017 34.6301 122.099 34.5562 122.175 34.4768C 122.66 33.8271 123.219 33.2332 123.839 32.709C 124.494 32.241 125.242 31.9214 126.031 31.7721C 126.355 31.7348 126.684 31.7641 126.998 31.8582C 127.311 31.9524 127.602 32.1095 127.854 32.32C 128.006 32.4218 128.147 32.5458 128.298 32.642C 128.997 33.123 129.418 33.9107 129.428 34.7556C 129.504 35.2255 129.54 35.6995 129.539 36.1749C 129.49 36.9082 129.361 37.6388 129.255 38.3847C 129.166 38.9911 129.082 39.5962 128.939 40.1929C 128.789 40.85 128.588 41.4943 128.338 42.1197C 127.948 43.0538 127.508 43.9683 127.031 44.8564C 126.678 45.5675 126.249 46.2367 125.751 46.8543C 125.311 47.3004 124.805 47.6782 124.252 47.9738C 123.931 48.1292 123.594 48.2488 123.247 48.3307C 122.962 48.179 122.665 48.0531 122.358 47.9543C 121.692 47.7534 121.1 47.3568 120.659 46.8152C 120.436 46.5319 120.306 46.186 120.286 45.825C 120.266 45.464 120.358 45.1056 120.549 44.7993C 120.608 44.7091 120.686 44.6337 120.779 44.5786C 120.871 44.5235 120.975 44.4903 121.082 44.4814C 121.303 44.5274 121.487 44.6821 121.57 44.8927C 121.677 45.6344 122.309 45.8254 122.851 46.2171C 123.162 45.5856 123.478 44.9986 123.741 44.388C 124.105 43.5487 124.465 42.7038 124.758 41.8366C 124.934 41.2497 125.073 40.6516 125.174 40.0465C 125.293 39.4554 125.423 38.8615 125.502 38.2787C 125.657 37.1466 125.946 36.0285 125.853 34.8699C 125.853 34.7883 125.844 34.7069 125.826 34.6273C 125.618 33.9512 125.244 33.8452 124.812 34.3973C 123.848 35.5572 122.957 36.7772 122.145 38.0501C 121.508 39.1096 120.81 40.1316 120.143 41.1786C 119.981 41.4604 119.844 41.7562 119.735 42.0625C 119.588 42.4347 119.444 42.8098 119.325 43.1946C 119.142 43.7773 118.979 44.3699 118.81 44.9624C 118.428 46.4449 117.946 47.8996 117.369 49.3164C 117.16 49.7946 117.009 50.3021 116.808 50.7845C 116.476 51.5987 116.102 52.3933 115.781 53.2103C 115.274 54.4888 114.802 55.7798 114.305 57.0583C 114.189 57.358 114.01 57.6327 113.895 57.9422C 113.726 58.3841 113.602 58.8261 113.451 59.2903C 113.37 59.4737 113.276 59.6507 113.17 59.8201C 113.108 59.9358 112.993 60.046 112.983 60.1645C 112.919 60.5053 112.725 60.8071 112.442 61.0052C 112.4 61.0285 112.354 61.0407 112.306 61.0407C 112.259 61.0407 112.212 61.0285 112.17 61.0052C 112.026 60.8234 111.898 60.6293 111.787 60.4252C 111.654 60.191 111.489 60.1645 111.302 60.382C 111.204 60.135 111.146 59.8738 111.129 59.6082C 111.183 59.0687 110.814 58.7243 110.685 58.2461C 110.596 58.0012 110.54 57.7458 110.516 57.4863C 110.53 57.2911 110.58 57.1015 110.663 56.9244C 110.89 56.3235 110.858 55.6738 111.106 55.0771C 111.453 54.2197 111.743 53.34 112.036 52.4644C 112.442 51.2487 112.832 50.0288 113.22 48.8089C 113.419 48.176 113.616 47.5402 113.807 46.9073C 114.127 45.8477 114.444 44.7839 114.758 43.7202C 114.765 43.6497 114.765 43.5787 114.758 43.5083L 114.158 43.8749C 113.228 44.395 112.483 45.1854 112.018 46.1391C 111.886 46.5394 111.795 46.9524 111.747 47.3715C 111.578 48.1801 111.419 48.9888 111.228 49.7946C 111.075 50.4178 110.81 51.0229 110.72 51.6558C 110.583 52.4601 110.347 53.2441 110.018 53.9897C 109.857 54.387 109.573 54.7411 109.413 55.1385C 108.968 56.1771 108.524 57.2158 108.154 58.2865C 107.479 60.3415 106.23 62.0703 105.041 63.8521C 104.663 64.4265 104.179 64.9298 103.748 65.4693C 103.631 65.6208 103.529 65.7838 103.445 65.9559C 102.988 66.7641 102.4 67.4902 101.706 68.1043C 101.338 68.4668 101.017 68.8739 100.635 69.2224C 100.187 69.6499 99.7034 70.0375 99.1894 70.381C 98.5248 70.8885 97.7828 71.284 96.9924 71.5521C 96.2864 71.725 95.5665 71.8393 94.8453 71.9425C 94.4646 72.0122 94.0756 72.0178 93.6935 71.9634C 93.03 71.8164 92.4446 71.4257 92.0516 70.8676C 91.7194 70.4256 91.4564 69.9474 91.1629 69.4873C 90.8694 69.0273 91.0341 68.5811 91.1352 68.135C 91.2321 67.6944 91.365 67.2622 91.5367 66.844C 91.7692 66.2738 92.0378 65.7189 92.341 65.1821C 93.0672 63.913 93.8191 62.6589 94.5961 61.4206C 95.61 59.8151 96.8038 58.3322 98.1539 57.0011C 98.8666 56.2584 99.539 55.4774 100.168 54.6617C 102.162 52.2561 104.303 49.9791 106.58 47.8441C 106.898 47.5274 107.25 47.2473 107.63 47.009C 107.779 46.9141 107.904 46.7842 107.993 46.6303C 108.083 46.4764 108.134 46.3031 108.142 46.1251C 108.243 45.4796 108.368 44.8341 108.478 44.1886C 108.589 43.5431 108.705 42.7972 108.818 42.0973C 108.928 41.4003 109.039 40.6837 109.15 39.9712L 109.274 39.2295ZM 107.136 50.4039C 107.074 50.448 107.016 50.4969 106.962 50.5502C 106.54 51.0494 106.136 51.568 105.704 52.0532C 104.721 53.1587 103.73 54.2629 102.725 55.3504C 102.281 55.8384 101.77 56.2705 101.316 56.7529C 101.137 56.9425 101.049 57.1949 100.87 57.4152C 99.8386 58.741 98.763 60.0683 97.7801 61.4206C 97.1668 62.2739 96.393 63.017 96.0012 64.0375C 95.6509 64.8182 95.2606 65.5781 94.8314 66.3184C 94.7124 66.5498 94.6141 66.7924 94.5338 67.0392C 94.3552 67.5871 94.1918 68.1406 94.0271 68.6927C 94.0021 68.7611 94.0021 68.8362 94.0271 68.9046C 94.1337 69.0998 94.2624 69.2852 94.3829 69.4748C 94.4166 69.5482 94.4653 69.6137 94.5256 69.667C 94.586 69.7204 94.6568 69.7604 94.7335 69.7846C 94.8101 69.8087 94.891 69.8165 94.9708 69.8073C 95.0506 69.7981 95.1276 69.7723 95.1969 69.7313C 95.7142 69.4738 96.2121 69.1784 96.6864 68.8474C 97.8359 67.9083 98.8555 66.8186 99.7182 65.6073C 100.811 64.2586 101.756 62.7956 102.538 61.2436C 102.942 60.421 103.427 59.6528 103.873 58.8386C 104.219 58.1708 104.512 57.4723 104.828 56.792C 105.797 54.7495 106.723 52.7029 107.136 50.4039ZM 93.1107 34.2914C 93.209 34.2523 93.3045 34.2049 93.3958 34.1505C 94.2846 33.5009 95.1166 32.8233 96.0095 32.2001C 96.8767 31.5994 97.767 31.0334 98.6785 30.5034C 99.3015 30.0977 100.021 29.8621 100.763 29.8174C 100.988 29.784 101.206 29.7199 101.414 29.6278C 101.764 29.5261 102.106 29.4117 102.462 29.3323C 102.582 29.3001 102.71 29.3127 102.822 29.3678C 102.934 29.4228 103.022 29.5166 103.071 29.632C 103.16 29.7817 103.194 29.9577 103.169 30.1302C 103.144 30.3026 103.06 30.4611 102.933 30.5787C 102.385 30.9446 101.816 31.2779 101.23 31.5769C 100.447 31.9359 99.7025 32.3731 99.0066 32.8818C 98.2023 33.4813 97.3357 34.0042 96.53 34.6009C 96.0316 34.9912 95.554 35.4095 95.0986 35.8473C 95.006 35.9543 94.9252 36.0712 94.8577 36.1958C 94.6224 36.5374 94.3912 36.8776 94.1517 37.2136C 93.7059 37.8103 93.3377 38.4335 92.8656 38.9814C 92.1859 39.7858 91.9769 40.8161 91.4702 41.6958C 90.8777 42.6996 90.3406 43.7341 89.7716 44.7505C 89.5667 45.113 89.3258 45.4671 89.1265 45.8198C 89.0916 45.9017 89.0393 45.9749 88.9731 46.0341C 88.907 46.0933 88.8287 46.1371 88.7439 46.1624C 88.659 46.1877 88.5697 46.1939 88.4822 46.1804C 88.3947 46.167 88.3112 46.1343 88.2377 46.0847C 88.1311 46.0273 88.011 46.0003 87.8903 46.0066C 87.3434 46.1042 87.068 45.7501 86.8105 45.3792C 86.6892 45.2169 86.5913 45.038 86.5197 44.8481C 86.4455 44.6477 86.4126 44.4343 86.4228 44.2207C 86.4851 43.5696 86.5779 42.9241 86.6623 42.2744L 86.5197 42.1461C 86.4949 42.2536 86.4548 42.3569 86.4007 42.4529C 86.1474 42.7791 85.858 43.0844 85.613 43.4148C 85.3112 43.8317 85.0399 44.2778 84.7505 44.7017C 84.6384 44.869 84.5152 45.0279 84.3809 45.1799C 84.0339 45.4893 83.7249 45.8394 83.4603 46.2227C 83.189 46.7037 82.8789 47.1638 82.5356 47.5974C 82.14 48.2226 81.623 48.7609 81.0156 49.1798C 80.4729 49.5074 79.9607 49.8782 79.4374 50.2365C 78.7323 50.7076 77.9151 50.9805 77.0702 51.0271C 76.5573 51.1068 76.0385 51.1408 75.5197 51.1288C 74.5631 51.0271 73.5677 50.9044 72.7745 50.3425C 72.2817 49.994 71.7695 49.644 71.3071 49.2509C 71.0953 49.011 70.9526 48.7174 70.8946 48.4018C 70.663 47.5494 70.4506 46.6917 70.2578 45.8296C 70.2405 45.75 70.2105 45.6737 70.1692 45.6037C 69.8791 45.0923 69.7416 44.5076 69.7732 43.9195L 69.7732 42.2354C 69.7732 41.6735 69.6805 41.1033 69.6625 40.5373C 69.6532 40.1106 69.674 39.6839 69.7248 39.2602C 69.8051 38.5701 69.9075 37.88 70.0224 37.1968C 70.1387 36.5109 70.2674 35.7636 70.41 35.0512C 70.5789 34.2258 70.7423 33.3935 70.9569 32.5765C 71.1202 31.9645 71.3209 31.3636 71.5604 30.778C 71.9162 29.8927 72.2775 29.0088 72.7039 28.1695C 73.2535 27.0263 73.8612 25.9151 74.5271 24.8361C 75.4159 23.4251 76.4486 22.0826 77.4176 20.7121C 77.6128 20.4263 77.8814 20.1962 78.1956 20.0484C 78.4287 19.9125 78.6428 19.7461 78.8324 19.5535C 79.0899 19.3318 79.2754 18.9749 79.6547 18.961C 79.9538 18.9345 80.2556 18.9652 80.5435 19.0488C 80.7747 19.1576 81.0419 19.1576 81.2731 19.0488C 81.6828 18.8313 82.1424 18.7226 82.6076 18.7351C 83.2582 18.724 83.8839 18.9749 84.3463 19.4294C 84.5484 19.6302 84.7838 19.7975 85.0385 19.9244C 85.6199 20.2506 85.9965 20.8431 86.0449 21.5026C 86.2097 22.7225 86.3426 23.9563 86.4049 25.1846C 86.4076 25.7395 86.3259 26.2902 86.164 26.8214C 85.9785 27.5017 85.7556 28.1709 85.4981 28.829C 85.395 29.0472 85.2534 29.2447 85.08 29.4117C 84.7893 29.7296 84.4792 30.0252 84.1899 30.3347C 84.099 30.4295 83.9899 30.5047 83.8692 30.5557C 83.7486 30.6068 83.6189 30.6326 83.488 30.6316C 82.3708 30.6888 82.483 30.3667 82.8512 29.5344C 83.1087 29.0534 83.3302 28.5543 83.5143 28.0413C 83.8078 26.9845 84.0473 25.9096 84.2619 24.8347C 84.3726 24.2909 84.3809 23.7305 84.4391 23.1784C 84.4859 22.4643 84.3055 21.7537 83.9241 21.1498C 83.8547 21.0518 83.7653 20.97 83.6618 20.9099C 83.5583 20.8498 83.4431 20.8128 83.3242 20.8014C 83.2052 20.79 83.0852 20.8046 82.9723 20.844C 82.8594 20.8834 82.7563 20.9468 82.6699 21.0299C 82.0912 21.4984 81.7797 22.1704 81.309 22.7002C 80.1876 23.987 79.2258 25.4065 78.4448 26.9273C 77.7027 28.2744 76.9956 29.6407 76.324 31.0248C 76.1002 31.5416 75.9115 32.073 75.7592 32.6156C 75.474 33.466 75.1681 34.3095 74.9369 35.1753C 74.75 35.8654 74.6918 36.5862 74.4911 37.2805C 74.331 38.1474 74.2554 39.0281 74.2655 39.9099C 74.2655 40.1316 74.3762 40.3518 74.3721 40.5902C 74.3721 40.9848 74.2876 41.3738 74.2738 41.7669C 74.2599 42.1601 74.3042 42.4347 74.3181 42.7652C 74.3291 42.9548 74.3291 43.143 74.3181 43.3312C 74.307 44.3456 74.4943 45.3522 74.869 46.2938C 74.9023 46.3872 74.9563 46.4737 75.0255 46.5448C 75.1944 46.726 75.3896 46.8766 75.546 47.0676C 75.9724 47.5932 76.6618 47.8316 77.3249 47.681C 78.0663 47.5743 78.7874 47.3552 79.4637 47.0313C 80.2256 46.6213 80.9068 46.0747 81.4738 45.4183C 82.638 44.1802 83.8258 42.9687 84.9679 41.7181C 85.4137 41.219 85.786 40.6307 86.2138 40.1009C 86.5696 39.6255 86.9655 39.1807 87.396 38.7736C 87.8446 38.3205 88.1533 37.7503 88.2862 37.1285C 88.5824 36.1693 88.8884 35.2101 89.2068 34.2523C 89.4726 33.4158 89.7218 32.5765 90.0236 31.754C 90.3281 30.9314 90.6562 30.2468 90.976 29.4912C 91.0383 29.3448 91.0867 29.1901 91.1629 29.0493C 91.2429 28.8785 91.3776 28.7399 91.5453 28.6557C 91.7131 28.5715 91.9041 28.5466 92.0876 28.585C 92.9874 28.6742 93.7267 29.3239 93.9288 30.1981C 94.0562 30.8617 93.9662 31.5462 93.6755 32.1569C 93.4484 32.7494 93.2616 33.3587 93.0664 33.9637C 93.0691 34.0753 93.0844 34.184 93.1107 34.2914ZM 134.32 30.0698C 133.669 30.1493 133.102 30.1897 132.541 30.2915C 131.555 30.5046 130.541 30.5522 129.54 30.4323C 129.238 30.3551 128.94 30.2592 128.65 30.1451C 128.205 30.0126 127.725 29.915 127.271 29.7742C 126.781 29.6178 126.339 29.3372 125.988 28.9592C 125.637 28.5813 125.389 28.1187 125.266 27.616C 125.246 27.4929 125.254 27.3666 125.29 27.247C 125.326 27.1275 125.389 27.0181 125.474 26.9273C 125.572 26.8516 125.69 26.8069 125.813 26.7989C 125.936 26.791 126.058 26.8201 126.165 26.8827C 127.07 27.3864 128.097 27.6255 129.13 27.5728C 129.637 27.5408 130.153 27.6425 130.66 27.6119C 131.438 27.5631 132.216 27.4529 132.995 27.3735C 133.773 27.294 134.654 27.1964 135.484 27.1392C 135.588 27.1404 135.691 27.1139 135.781 27.0625C 135.872 27.0111 135.948 26.9366 136.001 26.8465C 136.827 25.6363 137.681 24.4429 138.504 23.2314C 138.905 22.5538 139.474 21.9919 140.158 21.6002C 140.296 21.5291 140.456 21.5151 140.604 21.5597C 141.019 21.7591 141.376 22.0644 141.635 22.445C 141.804 22.6918 141.663 22.9483 141.587 23.2007C 141.51 23.4516 141.47 23.7263 141.404 23.987C 141.367 24.173 141.309 24.354 141.231 24.5265C 140.932 25.0926 140.616 25.6447 140.314 26.2107C 140.269 26.3222 140.234 26.438 140.212 26.5551L 145.633 26.5551C 145.633 26.7503 145.766 26.7726 145.961 26.7767C 146.327 26.7767 146.686 26.852 147.051 26.8952L 149.72 27.2048C 147.671 27.1496 145.623 27.3142 143.609 27.6955L 143.916 27.7973L 143.916 27.8503C 143.613 27.8823 143.307 27.8991 143.026 27.952C 142.907 27.952 142.805 28.0761 142.684 28.1026C 142.431 28.1639 142.172 28.2086 141.915 28.249C 141.106 28.3773 140.292 28.4958 139.486 28.638C 139.425 28.6578 139.368 28.6911 139.32 28.7354C 139.273 28.7797 139.235 28.834 139.211 28.8945C 138.736 30.0517 138.27 31.2144 137.806 32.3772C 137.415 33.3587 137.006 34.336 136.65 35.33C 136.208 36.5742 135.786 37.8254 135.383 39.0831C 135.203 39.6478 135.055 40.2222 134.938 40.8036C 134.833 41.3181 134.765 41.8394 134.734 42.3636C 134.654 43.6407 134.591 44.9233 134.537 46.2004C 134.464 46.95 134.632 47.7034 135.018 48.3488C 135.052 48.4187 135.102 48.4802 135.162 48.5289C 135.223 48.5777 135.293 48.6126 135.369 48.6311C 135.444 48.6497 135.523 48.6515 135.599 48.6365C 135.675 48.6215 135.747 48.5899 135.81 48.544C 136.125 48.3443 136.462 48.1824 136.815 48.0616C 136.961 48.0379 137.112 48.0379 137.259 48.0616C 137.278 48.2275 137.269 48.3948 137.231 48.5566C 137.036 48.9469 136.726 49.2732 136.343 49.4907C 135.728 49.8936 135.008 50.1125 134.27 50.1208C 133.634 50.1045 133.025 49.8586 132.554 49.4279C 131.711 48.6915 131.094 47.728 130.776 46.6507C 130.386 45.2802 130.264 43.8466 130.416 42.4292C 130.503 41.0489 130.773 39.6868 131.219 38.3763C 131.697 36.9305 132.167 35.4848 132.666 34.0488C 132.945 33.2401 133.257 32.4441 133.591 31.6522C 133.751 31.2716 133.992 30.923 134.186 30.5564C 134.241 30.3974 134.285 30.2357 134.32 30.0698ZM 144.027 35.0247C 143.522 35.2715 143.113 35.68 142.867 36.1833C 142.466 36.9152 142.103 37.668 141.782 38.4376C 141.337 39.6757 140.964 40.9485 140.522 42.1949C 140.261 43.0799 140.301 44.0272 140.634 44.8871C 140.741 45.2412 140.897 45.2816 141.15 45.0028C 141.551 44.5609 141.924 44.1189 142.288 43.6407C 142.446 43.465 142.558 43.2545 142.618 43.0273C 142.711 42.4389 143.022 41.891 142.956 41.2581C 142.962 41.1047 143 40.9543 143.066 40.8161C 143.57 39.5139 143.896 38.1504 144.031 36.7632C 144.053 36.2056 144.027 35.6395 144.027 35.0247ZM 121.735 63.8911L 121.735 55.9346L 118.983 55.961L 118.983 55.0018L 125.542 55.0018L 125.542 55.9694L 122.838 55.9429L 122.838 63.9009L 121.735 63.8911ZM 127.743 56.7613C 127.743 57.3984 127.743 58.2029 127.703 58.5291L 127.731 58.5291C 127.956 58.1376 128.28 57.8134 128.67 57.5898C 129.061 57.3661 129.503 57.251 129.952 57.2562C 131.731 57.2562 132.296 58.4678 132.296 60.1603L 132.296 63.8786L 131.247 63.8786L 131.247 60.5716C 131.247 59.1565 131.042 58.1276 129.709 58.1276C 128.605 58.1276 127.747 58.9055 127.747 60.7138L 127.747 63.8828L 126.698 63.8828L 126.698 54.2629L 127.747 54.2629L 127.743 56.7613ZM 134.875 60.8727C 134.836 61.4959 135.07 62.1052 135.518 62.5457C 135.963 62.9849 136.579 63.2108 137.206 63.1661C 137.852 63.1704 138.487 63.0077 139.052 62.6935L 139.092 63.6485C 138.481 63.9106 137.821 64.0403 137.157 64.0291C 135.018 64.0291 133.813 62.7284 133.813 60.6023C 133.813 58.5779 135.045 57.2646 136.851 57.2646C 138.526 57.2646 139.567 58.2963 139.567 60.421C 139.567 60.5367 139.567 60.7277 139.54 60.863L 134.875 60.8727ZM 138.54 60.0725C 138.54 58.7243 137.86 58.0746 136.823 58.0746C 135.787 58.0746 135.004 58.7856 134.903 60.0725L 138.54 60.0725ZM 147.376 55.1566C 147.17 55.1081 146.96 55.0828 146.749 55.0813C 145.944 55.0813 145.659 55.5902 145.659 56.6107L 145.659 57.4514L 147.348 57.4514L 147.348 58.2768L 145.659 58.2768L 145.659 63.8911L 144.636 63.8911L 144.636 58.2768L 143.138 58.2768L 143.138 57.4514L 144.636 57.4514L 144.636 56.6372C 144.636 55.1956 145.175 54.2197 146.62 54.2197C 146.9 54.2155 147.181 54.249 147.451 54.3215L 147.376 55.1566ZM 153.05 62.7827C 152.825 63.1735 152.5 63.4964 152.109 63.7178C 151.718 63.9393 151.276 64.0511 150.827 64.0417C 149.021 64.0417 148.47 62.8301 148.47 61.1376L 148.47 57.4193L 149.519 57.4193L 149.519 60.7305C 149.519 62.2083 149.764 63.1759 151.071 63.1759C 152.196 63.1759 153.019 62.384 153.019 60.5897L 153.019 57.4193L 154.068 57.4193L 154.068 61.9644C 154.068 62.6545 154.068 63.3516 154.13 63.9009L 153.117 63.9009C 153.089 63.5942 153.063 63.1229 153.063 62.7813L 153.049 62.7813L 153.05 62.7827ZM 157.648 57.4514L 159.392 57.4514L 159.392 58.2768L 157.648 58.2768L 157.648 61.4862C 157.648 62.5178 157.879 63.1397 158.773 63.1397C 159.013 63.1397 159.249 63.0867 159.467 62.9863L 159.507 63.8116C 159.201 63.9106 158.881 63.9622 158.56 63.9664C 157.021 63.9664 156.625 63.0825 156.625 61.726L 156.625 58.2726L 155.175 58.2726L 155.175 57.4458L 156.625 57.4458L 156.625 55.9429L 157.649 55.5986L 157.649 57.4514L 157.648 57.4514ZM 165.292 62.7813C 165.067 63.1724 164.742 63.4956 164.351 63.7172C 163.96 63.9389 163.518 64.0509 163.069 64.0417C 161.264 64.0417 160.711 62.8301 160.711 61.1376L 160.711 57.4193L 161.761 57.4193L 161.761 60.7305C 161.761 62.2083 162.006 63.1759 163.314 63.1759C 164.438 63.1759 165.262 62.384 165.262 60.5897L 165.262 57.4193L 166.337 57.4193L 166.337 61.9644C 166.337 62.6545 166.337 63.3516 166.4 63.9009L 165.385 63.9009C 165.359 63.5942 165.332 63.1229 165.332 62.7813L 165.292 62.7813ZM 169.449 58.5821C 169.621 58.1073 169.966 57.7159 170.413 57.4871C 170.861 57.2583 171.378 57.2092 171.86 57.3496L 171.86 58.3047C 171.665 58.2499 171.463 58.2245 171.26 58.2294C 170.144 58.2294 169.481 59.2109 169.481 60.7612L 169.481 63.8953L 168.432 63.8953L 168.432 59.3475C 168.432 58.6574 168.432 57.9589 168.37 57.411L 169.393 57.411C 169.433 57.7553 169.445 58.2503 169.445 58.5821L 169.449 58.5821ZM 173.452 60.8727C 173.413 61.4959 173.647 62.1052 174.094 62.5457C 174.54 62.9849 175.156 63.2108 175.783 63.1661C 176.428 63.1703 177.065 63.0072 177.628 62.6935L 177.668 63.6485C 177.058 63.9106 176.399 64.0403 175.733 64.0291C 173.594 64.0291 172.39 62.7284 172.39 60.6023C 172.39 58.5779 173.622 57.2646 175.427 57.2646C 177.102 57.2646 178.143 58.2963 178.143 60.421C 178.143 60.5367 178.143 60.7277 178.117 60.863L 173.452 60.8727ZM 177.116 60.0725C 177.116 58.7243 176.436 58.0746 175.399 58.0746C 174.364 58.0746 173.582 58.7856 173.479 60.0725L 177.116 60.0725ZM 183.737 56.0851L 182.561 56.0851L 182.561 54.8861L 183.737 54.8861L 183.737 56.0851ZM 183.681 63.8925L 182.631 63.8925L 182.631 57.411L 183.681 57.411L 183.681 63.8911L 183.681 63.8925ZM 185.273 62.7813C 185.764 63.0648 186.32 63.2174 186.887 63.2247C 187.602 63.2247 188.22 62.8789 188.22 62.2167C 188.22 61.6409 187.86 61.39 186.811 60.9159C 185.761 60.4433 185.273 60.032 185.273 59.1481C 185.273 57.991 186.206 57.3134 187.496 57.3134C 188.007 57.3084 188.515 57.3982 188.994 57.5783L 188.905 58.4636C 188.47 58.2493 187.992 58.14 187.508 58.1443C 186.855 58.1443 186.318 58.4636 186.318 59.0728C 186.318 59.6835 186.726 59.887 187.611 60.2439C 188.803 60.718 189.287 61.2756 189.287 62.14C 189.287 63.4408 188.264 64.0779 186.979 64.0779C 186.37 64.0891 185.767 63.9803 185.201 63.7587L 185.273 62.7827L 185.273 62.7813ZM 194.7 56.7613C 194.7 57.3984 194.7 58.2029 194.658 58.5291L 194.686 58.5291C 194.911 58.1374 195.236 57.8131 195.627 57.5894C 196.017 57.3657 196.46 57.2507 196.909 57.2562C 198.688 57.2562 199.253 58.4678 199.253 60.1603L 199.253 63.8786L 198.204 63.8786L 198.204 60.5716C 198.204 59.1565 197.999 58.1276 196.664 58.1276C 195.562 58.1276 194.704 58.9055 194.704 60.7138L 194.704 63.8828L 193.655 63.8828L 193.655 54.2629L 194.704 54.2629L 194.7 56.7613ZM 201.832 60.8727C 201.793 61.4959 202.026 62.1052 202.473 62.5457C 202.92 62.9849 203.535 63.2108 204.162 63.1661C 204.809 63.1703 205.444 63.0072 206.007 62.6935L 206.049 63.6485C 205.437 63.9106 204.778 64.0403 204.114 64.0291C 201.975 64.0291 200.769 62.7284 200.769 60.6023C 200.769 58.5779 202.001 57.2646 203.806 57.2646C 205.483 57.2646 206.524 58.2963 206.524 60.421C 206.524 60.5367 206.524 60.7277 206.496 60.863L 201.832 60.8727ZM 205.497 60.0725C 205.497 58.7243 204.815 58.0746 203.78 58.0746C 202.743 58.0746 201.961 58.7856 201.858 60.0725L 205.497 60.0725ZM 209.161 58.5821C 209.333 58.1076 209.677 57.7165 210.124 57.4877C 210.571 57.2589 211.088 57.2096 211.57 57.3496L 211.57 58.3047C 211.375 58.2499 211.173 58.2245 210.97 58.2294C 209.855 58.2294 209.191 59.2109 209.191 60.7612L 209.191 63.8953L 208.138 63.8953L 208.138 59.3475C 208.138 58.6574 208.138 57.9589 208.076 57.411L 209.099 57.411C 209.139 57.7553 209.151 58.2503 209.151 58.5821L 209.161 58.5821ZM 213.167 60.8727C 213.129 61.4959 213.361 62.1052 213.808 62.5457C 214.255 62.9849 214.87 63.2108 215.497 63.1661C 216.144 63.1703 216.779 63.0072 217.342 62.6935L 217.384 63.6485C 216.772 63.9106 216.113 64.0403 215.449 64.0291C 213.31 64.0291 212.104 62.7284 212.104 60.6023C 212.104 58.5779 213.336 57.2646 215.141 57.2646C 216.818 57.2646 217.859 58.2963 217.859 60.421C 217.859 60.5367 217.859 60.7277 217.831 60.863L 213.167 60.8727ZM 216.832 60.0725C 216.832 58.7243 216.151 58.0746 215.115 58.0746C 214.078 58.0746 213.296 58.7856 213.194 60.0725L 216.832 60.0725Z"/>
</defs>
</svg>
