<svg width="169" height="53" viewBox="0 0 169 53" version="1.1" xmlns="http://www.w3.org/2000/svg" xmlns:xlink="http://www.w3.org/1999/xlink">
<g id="Canvas" fill="none">
<g id="logo_h">
<g id="Vector">
<path d="M 28.1738 20.7061L 29.9134 20.5932C 31.6338 20.4783 33.3531 20.3644 35.0765 20.2669C 36.211 20.1951 37.3445 20.1756 38.478 20.0555C 39.3724 19.958 40.2528 19.7302 41.1402 19.5711C 41.4649 19.5095 41.6878 19.6101 41.7433 19.8636C 41.7987 20.1171 41.6465 20.3059 41.3288 20.3582C 38.8602 20.7811 36.444 21.4871 33.9471 21.7314C 31.9474 21.9264 29.9487 22.0988 27.9469 22.2712C 27.879 22.2659 27.8114 22.2861 27.7571 22.3281C 27.7029 22.3701 27.6656 22.4309 27.6525 22.499C 26.1146 27.4498 24.5697 32.4025 23.0167 37.3594C 22.1233 40.2258 21.2197 43.0901 20.3091 45.9513C 20.2244 46.2182 20.1044 46.4747 20.0046 46.7354L 19.9007 46.7128C 19.9844 46.1494 20.0429 45.5798 20.1528 45.0195C 20.8204 41.6266 21.9054 38.3487 22.9461 35.0595L 26.8326 22.7464C 26.872 22.6232 26.9032 22.496 26.9496 22.3328C 26.4988 22.3595 26.0874 22.3882 25.6729 22.4077C 21.3649 22.6068 17.0599 22.8439 12.7479 22.9845C 10.481 23.0594 8.21299 22.9845 5.92991 22.9352C 4.5766 22.9352 3.22833 22.7751 1.91233 22.46C 1.70862 22.4046 1.50795 22.3297 1.30021 22.2753C 0.461195 22.0526 0.127405 21.4307 0.0174864 20.6384C -0.0349831 20.2694 0.0313631 19.893 0.206599 19.5656C 0.381834 19.2381 0.656539 18.9772 0.989612 18.8219C 1.63702 18.4483 2.20376 17.9732 2.85218 17.6181C 4.96787 16.4594 7.22473 15.6271 9.4826 14.8C 9.9945 14.5859 10.4941 14.3426 10.9791 14.0713C 11.922 13.5961 12.8941 13.1702 13.7946 12.6263C 14.5358 12.1778 15.1943 11.5857 15.8932 11.0643C 16.7705 10.4137 17.189 9.40795 17.7951 8.54588C 18.65 7.24397 19.6263 6.02906 20.7105 4.91802C 21.6886 4.02209 22.8181 3.31088 24.0473 2.8193C 25.1869 2.2918 26.3567 1.83716 27.5516 1.45539C 29.6733 0.82564 31.8572 0.438064 34.0631 0.299811C 35.8157 0.200263 37.5694 0.102767 39.32 0.00732407C 40.5251 -0.0542521 41.6717 0.284417 42.8223 0.573824C 44.0374 0.863232 45.2173 1.28708 46.3397 1.83921C 46.4032 1.87205 46.4637 1.909 46.5212 1.95005C 47.3985 2.60071 48.286 3.21544 49.1512 3.87328C 49.4941 4.13703 49.7996 4.47467 50.1072 4.76818C 50.6584 5.3088 51.2391 5.81727 51.8467 6.29117C 52.3419 6.64523 52.955 6.83099 53.4854 7.14297C 54.1691 7.50011 54.9113 7.72794 55.6757 7.81723C 57.2338 8.08098 58.8019 8.29239 60.3569 8.5623C 63.2168 9.06004 66.0545 9.64912 68.7783 10.7103C 69.4714 10.9452 70.1161 11.3081 70.6802 11.7807C 71.0997 12.1122 71.3437 12.6181 71.3437 13.1538C 71.3437 13.6895 71.0997 14.1955 70.6802 14.527C 69.8243 15.2911 68.7945 15.8256 67.6841 16.0818C 66.7604 16.3168 65.8185 16.4564 64.8817 16.6421L 63.48 16.9223C 63.3136 16.9541 63.1361 16.9839 63.0837 16.7622C 63.0322 16.5415 63.1946 16.4759 63.369 16.4533C 65.5714 16.1731 67.4209 15.0832 69.226 13.8886C 69.4115 13.7655 69.586 13.6249 69.7474 13.4689C 69.9995 13.2287 70.0156 13.0276 69.7474 12.7957C 69.4641 12.5446 69.1543 12.3264 68.8236 12.145C 67.4939 11.4864 66.1019 10.9672 64.6689 10.5953C 61.8012 9.80349 58.8763 9.24413 55.9218 8.92252C 52.5657 8.52638 49.1966 8.53664 45.8274 8.5428C 43.3923 8.52775 40.9579 8.63632 38.5334 8.86813C 36.507 9.07125 34.4888 9.35128 32.4829 9.70762C 29.5665 10.2382 26.6511 10.8694 23.7357 11.4779C 23.0883 11.6144 22.4399 11.8423 21.7925 12.0054C 19.9461 12.4673 18.0865 12.8778 16.2532 13.3847C 13.159 14.2144 10.1108 15.2127 7.12187 16.3753C 5.75444 16.9284 4.42331 17.5493 3.10832 18.1815C 2.58293 18.4483 2.09586 18.7839 1.66022 19.1801C 1.38258 19.4584 1.16216 19.7902 1.0118 20.1561C 0.946361 20.2798 0.926456 20.4232 0.955664 20.5606C 0.984872 20.6979 1.06128 20.8201 1.17113 20.9052C 1.20642 20.934 1.17113 21.0479 1.17113 21.2008C 1.55332 21.2726 1.97384 21.3671 2.39839 21.4225C 4.21527 21.6221 6.04424 21.6838 7.87013 21.6072C 11.4914 21.523 15.1157 21.4348 18.7349 21.2819C 21.5202 21.169 24.3065 20.9565 27.0918 20.8006C 27.2093 20.8099 27.326 20.7734 27.4181 20.6985C 27.5102 20.6237 27.5709 20.516 27.5879 20.3972C 27.8753 19.3884 28.19 18.3899 28.4945 17.3841C 28.5147 17.3153 28.5268 17.2476 28.5268 17.2568C 28.3876 17.0906 28.2031 16.9613 28.2031 16.8504C 28.2183 16.7638 28.2527 16.6817 28.3038 16.6106C 28.3548 16.5395 28.4211 16.4811 28.4975 16.4399C 28.6128 16.3938 28.7153 16.3201 28.7966 16.2251C 28.8779 16.13 28.9355 16.0165 28.9645 15.894C 29.033 15.701 29.1177 15.5153 29.2166 15.3367C 29.273 15.2525 29.3386 15.1735 29.4112 15.1027L 29.5241 15.1448L 29.4082 16.0664C 29.4618 16.0724 29.5159 16.0724 29.5695 16.0664C 32.504 15.3726 35.4819 14.9108 38.4679 14.5064C 39.7224 14.3381 40.989 14.2376 42.2515 14.1432C 42.8445 14.097 42.8999 14.2601 43.0068 14.8328C 43.1581 15.3562 43.3557 15.8632 43.5998 16.3486C 43.6744 16.5313 43.7551 16.7078 43.8226 16.8925C 43.8912 17.0773 43.9003 17.2178 43.9527 17.3615C 44.7625 19.6645 45.663 21.9387 46.373 24.2755C 47.691 28.6197 48.892 32.9998 50.1626 37.3573C 50.732 39.472 51.4605 41.5389 52.3419 43.5396C 52.5133 43.907 52.712 44.2652 52.9025 44.6233C 53.1426 45.0749 53.0548 45.5018 52.6696 45.7101C 52.5787 45.7589 52.4786 45.7875 52.376 45.7938C 52.2734 45.8002 52.1707 45.7843 52.0746 45.7471C 51.9794 45.7104 51.893 45.6533 51.8213 45.5796C 51.7496 45.5059 51.6943 45.4175 51.6591 45.3202C 51.1953 44.3247 50.7677 43.3118 50.328 42.306C 50.328 42.2773 50.3079 42.2475 50.2948 42.2219C 49.8813 41.2264 49.6151 40.1847 49.3004 39.1564C 48.9863 38.1131 48.6871 37.0651 48.4029 36.0129C 47.5357 32.8315 46.6987 29.6419 45.8113 26.4686C 45.0993 23.9635 44.3158 21.4779 43.5443 18.9851C 43.2015 17.8788 42.8062 16.7848 42.43 15.6887C 42.3821 15.5252 42.3157 15.3678 42.2324 15.2197C 42.2018 15.1746 42.1625 15.1363 42.1169 15.1072C 42.0713 15.0781 42.0203 15.0587 41.9671 15.0504C 41.4667 14.9961 40.9625 14.9876 40.4605 15.0247C 37.3667 15.4445 34.2738 15.8899 31.183 16.326C 30.6031 16.4112 30.0263 16.5518 29.4566 16.6852C 29.4035 16.7 29.3543 16.7265 29.3125 16.7629C 29.2706 16.7993 29.2372 16.8446 29.2145 16.8956C 28.8475 18.1477 28.5238 19.3976 28.1738 20.7061ZM 160.671 26.8073C 160.995 26.7714 161.3 26.7324 161.614 26.7037C 161.928 26.6739 162.314 26.6677 162.657 26.6092C 163.024 26.5311 163.406 26.5803 163.742 26.7488L 163.645 26.8956C 164.19 27.1829 164.612 27.6612 164.831 28.24C 165.362 27.8941 165.87 27.5626 166.382 27.2373C 166.894 26.912 167.429 26.5538 167.969 26.2449C 168.242 26.1105 168.524 26.0017 168.815 25.9196C 168.854 25.9196 168.906 25.9196 169 25.9483C 168.936 26.0509 168.864 26.1464 168.783 26.2357C 168.157 26.7775 167.526 27.3194 166.891 27.8623C 166.678 28.0409 166.441 28.1876 166.224 28.3724C 165.958 28.6392 165.665 28.8793 165.353 29.0887C 164.626 29.4664 164.38 30.1355 164.15 30.8334C 164.046 31.1075 163.927 31.3757 163.794 31.6369C 163.516 32.1244 163.274 32.6324 163.068 33.1558C 162.986 33.3467 162.867 33.5181 162.718 33.6638C 162.359 34.1 161.973 34.5197 161.624 34.9651C 161.193 35.5152 160.759 36.0684 160.004 36.173C 159.437 36.251 158.854 36.2828 158.355 35.9185C 158.215 35.7898 158.094 35.6408 157.996 35.4762C 157.916 35.3763 157.849 35.2671 157.794 35.1509C 157.77 35.1009 157.755 35.0463 157.751 34.9905C 157.747 34.9346 157.754 34.8785 157.772 34.8255C 158.014 34.3227 158.281 33.8311 158.573 33.3549C 158.821 32.9635 159.109 32.5989 159.43 32.2671C 160.072 31.6181 160.73 30.9857 161.404 30.3705C 161.727 30.0708 162.123 29.8471 162.472 29.5669C 162.592 29.471 162.684 29.3441 162.739 29.1995C 162.835 28.9224 162.894 28.633 162.971 28.3241C 162.631 28.303 162.294 28.4031 162.019 28.6074C 161.589 28.8406 161.12 28.9896 160.636 29.0466C 160.283 29.1082 159.946 29.2673 159.592 29.3391C 159.323 29.3812 159.049 29.3953 158.777 29.3812C 158.653 29.3756 158.533 29.346 158.421 29.294C 158.277 29.2283 158.207 29.294 158.148 29.4038C 157.889 29.883 157.617 30.351 157.387 30.8426C 157.001 31.7139 156.45 32.4998 155.767 33.1558C 155.553 33.3918 155.36 33.6464 155.191 33.9173C 155.071 34.0805 154.867 34.2047 154.938 34.454C 154.938 34.4746 154.915 34.5095 154.898 34.529C 154.704 34.7671 154.52 35.0072 154.313 35.2319C 154.183 35.4318 153.998 35.589 153.782 35.6845C 153.545 35.7625 153.386 36.0714 153.189 36.2695C 153.098 36.3762 152.987 36.4645 152.865 36.5302C 152.471 36.7129 152.064 36.8688 151.65 36.9992C 151.271 37.0874 150.871 37.0197 150.542 36.8103C 149.862 36.4387 149.262 35.9332 148.777 35.3233C 148.446 34.873 148.244 34.3379 148.194 33.7777C 148.168 33.5889 148.149 33.4001 148.122 33.1856C 148.09 33.2021 148.059 33.2228 148.032 33.2471C 147.433 33.9758 146.827 34.6952 146.247 35.4331C 145.991 35.7594 145.819 36.1494 145.563 36.4717C 145.385 36.6954 145.165 36.8822 144.916 37.0218C 144.536 37.2332 144.125 37.3861 143.726 37.5616C 143.705 37.5646 143.683 37.5646 143.662 37.5616C 143.522 37.5702 143.384 37.5324 143.267 37.454C 143.15 37.3755 143.061 37.2606 143.014 37.1264C 142.965 36.954 142.894 36.8853 142.725 36.9499C 142.541 36.5989 142.366 36.2572 142.178 35.9257C 142.134 35.8592 142.103 35.7842 142.089 35.7052C 142.074 35.6263 142.076 35.5452 142.094 35.467C 142.103 35.3173 142.103 35.1672 142.094 35.0175C 142.115 34.9222 142.146 34.8294 142.185 34.7404C 142.185 34.6921 142.236 34.6306 142.22 34.5946C 142.006 34.1523 142.22 33.7356 142.334 33.3385C 142.762 31.9787 143.228 30.6343 143.681 29.2847C 143.895 28.6525 144.112 28.0214 144.329 27.3933C 144.427 27.1203 144.563 26.8627 144.672 26.5928C 144.711 26.5048 144.729 26.4091 144.727 26.3126C 144.727 26.1372 144.582 26.0756 144.449 26.1864C 144.257 26.3414 144.077 26.5097 143.908 26.6903C 142.963 27.7992 142.124 28.9979 141.404 30.2699C 140.977 30.9657 140.52 31.6462 140.076 32.3327C 139.807 32.7535 139.548 33.1825 139.262 33.5889C 139.088 33.8331 139.062 33.8044 138.819 33.6402C 138.744 33.592 138.589 33.6638 138.469 33.6802L 138.469 33.7418C 138.427 33.6833 138.401 33.595 138.346 33.5725C 138.114 33.4719 138.161 33.3056 138.214 33.124C 138.411 32.4405 138.609 31.757 138.797 31.0704C 138.958 30.468 139.12 29.8666 139.256 29.2611C 139.393 28.6556 139.513 28.1353 139.655 27.576C 139.766 27.1357 139.914 26.7098 140.024 26.2736C 140.101 25.9678 140.151 25.6558 140.212 25.3469L 140.132 25.3038L 139.865 25.6846C 139.02 26.8689 138.214 28.086 137.316 29.2283C 136.8 29.9436 136.353 30.7061 135.981 31.5066C 135.589 32.2063 135.28 32.9512 135.061 33.7254C 135.032 33.8988 135.021 34.0743 135.026 34.2488C 134.896 34.451 134.776 34.6306 134.663 34.8194C 134.55 35.0072 134.375 34.9261 134.239 34.8676C 134.117 34.8053 134.007 34.7204 133.915 34.6172C 133.876 34.5612 133.819 34.5221 133.753 34.5082C 133.687 34.4943 133.619 34.5065 133.562 34.5423C 133.429 34.6172 133.354 34.5721 133.289 34.4315C 133.125 34.0985 133.076 33.7188 133.15 33.3539C 133.241 32.9054 133.267 32.4405 133.335 31.9848C 133.403 31.5292 133.487 31.0766 133.572 30.624C 133.656 30.1724 133.768 29.649 133.872 29.1667C 134.028 28.4411 134.197 27.7186 134.339 26.9961C 134.359 26.8484 134.373 26.6995 134.378 26.5507C 134.08 26.7098 133.814 26.8206 133.581 26.9797C 132.764 27.5267 131.961 28.0932 131.149 28.6464C 130.922 28.7993 130.673 28.9235 130.446 29.0754C 130.365 29.1315 130.307 29.2147 130.28 29.3104C 130.029 30.4976 129.69 31.6637 129.266 32.7987C 129.111 33.2143 128.978 33.6382 128.838 34.061C 128.781 34.2334 128.741 34.4058 128.516 34.4612C 128.486 34.4758 128.459 34.4967 128.438 34.5226C 128.416 34.5484 128.401 34.5786 128.392 34.6111C 128.196 35.1416 127.786 35.5655 127.264 35.7789C 126.954 35.9333 126.612 36.0094 126.267 36.0009C 125.922 35.9923 125.584 35.8993 125.282 35.7297C 124.874 35.5378 124.463 35.35 124.073 35.1283C 123.744 34.95 123.481 34.6662 123.325 34.3206C 123.125 33.866 122.889 33.4257 122.716 32.9608C 122.616 32.6219 122.54 32.2762 122.489 31.9263C 122.427 31.9732 122.37 32.0276 122.321 32.0885C 122.114 32.4138 121.916 32.7391 121.709 33.0655C 121.653 33.1356 121.591 33.2008 121.524 33.2605C 121.25 33.5097 121.006 33.7915 120.798 34.1C 120.607 34.4231 120.399 34.7349 120.173 35.0339C 119.834 35.5865 119.37 36.0485 118.82 36.3814C 118.513 36.5633 118.216 36.763 117.932 36.9797C 117.435 37.3201 116.861 37.5261 116.264 37.578C 116.062 37.619 115.857 37.6468 115.651 37.6601C 115.302 37.6601 114.952 37.6078 114.602 37.578C 114.065 37.5249 113.544 37.3633 113.069 37.1028C 112.943 37.0155 112.834 36.9052 112.747 36.7775C 112.655 36.6548 112.526 36.5667 112.38 36.5271C 112.253 36.4955 112.136 36.4322 112.039 36.343C 111.942 36.2537 111.869 36.1414 111.825 36.016C 111.751 35.7923 111.703 35.5573 111.638 35.3294C 111.547 35.0041 111.437 34.6788 111.362 34.3545C 111.262 33.9702 111.141 33.5919 110.999 33.2215C 110.902 32.7708 110.867 32.3088 110.893 31.8483C 110.87 31.3799 110.854 30.9112 110.844 30.4423C 110.834 29.9733 110.844 29.4366 110.844 28.9358C 110.867 28.6474 110.905 28.3611 110.961 28.0768C 111.029 27.6437 111.1 27.2147 111.166 26.7755C 111.169 26.7112 111.169 26.6468 111.166 26.5826C 110.789 26.8011 110.429 26.9797 110.1 27.2045C 109.416 27.6694 108.751 28.161 108.072 28.6361C 107.855 28.7901 107.608 28.9029 107.388 29.0497C 107.314 29.1015 107.259 29.1775 107.233 29.2652C 107.041 30.0123 106.886 30.7677 106.672 31.5097C 106.49 32.1408 106.241 32.7556 106.025 33.3775C 105.934 33.6382 105.856 33.9009 105.749 34.1554C 105.684 34.2628 105.603 34.3594 105.509 34.4417C 105.461 34.4971 105.376 34.5392 105.36 34.6008C 105.221 35.0219 104.927 35.3719 104.54 35.5768C 104.331 35.7457 104.088 35.8662 103.829 35.9298C 103.569 35.9934 103.299 35.9987 103.038 35.9452C 102.705 35.866 102.38 35.7572 102.065 35.6199C 101.615 35.3981 101.176 35.1525 100.751 34.884C 100.613 34.7946 100.502 34.67 100.427 34.5228C 100.155 34.0128 99.9109 33.4883 99.6947 32.9516C 99.4546 32.2572 99.4432 31.5021 99.6624 30.8005C 100.015 29.4879 100.436 28.1958 100.923 26.9284C 101.305 25.8966 101.852 24.9364 102.542 24.0867C 102.963 23.5489 103.508 23.122 104.13 22.8408C 104.504 22.6335 104.962 22.6458 105.325 22.8736C 105.496 22.9794 105.675 23.072 105.859 23.1507C 106.211 23.3344 106.486 23.6372 106.636 24.0056C 106.912 24.5721 107.284 25.0934 107.407 25.7297C 107.453 26.0468 107.481 26.365 107.492 26.6842L 107.492 27.3184C 107.683 27.2178 107.851 27.1398 108.006 27.0413C 109.071 26.3936 110.176 25.8157 111.314 25.311C 111.375 25.2803 111.421 25.2265 111.444 25.1612C 111.538 24.8092 111.638 24.4613 111.7 24.1041C 111.839 23.4511 112.057 22.818 112.347 22.2189C 112.756 21.2891 113.183 20.3613 113.665 19.4633C 114.116 18.6238 114.638 17.8162 115.153 17.0157C 115.538 16.4235 115.966 15.855 116.403 15.2977C 116.578 15.1099 116.772 14.9406 116.983 14.7938C 117.152 14.6542 117.306 14.5136 117.494 14.3802C 117.666 14.2242 117.855 14.0918 118.061 13.9872C 118.236 13.9267 118.426 13.9348 118.596 14.0097C 118.726 14.0667 118.868 14.0928 119.01 14.086C 119.152 14.0793 119.291 14.0398 119.416 13.9707C 119.75 13.8141 120.124 13.763 120.487 13.8239C 120.851 13.8848 121.189 14.0549 121.457 14.3125C 121.615 14.4592 121.791 14.5855 121.981 14.6891C 122.306 14.8636 122.542 15.1694 122.629 15.5286C 122.793 16.1382 122.883 16.7653 122.898 17.3964C 122.898 17.7382 122.959 18.0799 122.982 18.4247C 122.987 19.0666 122.877 19.7039 122.659 20.3059C 122.58 20.5758 122.48 20.8396 122.399 21.1095C 122.289 21.4707 121.988 21.6893 121.751 21.9654C 121.68 22.0536 121.58 22.1152 121.518 22.2065C 121.243 22.5996 120.837 22.5863 120.433 22.5575C 120.231 22.5575 120.151 22.4241 120.219 22.2322C 120.33 21.9171 120.459 21.6093 120.604 21.3086C 120.876 20.7302 121.069 20.1171 121.178 19.4859C 121.262 19.0569 121.36 18.63 121.41 18.1846C 121.488 17.653 121.523 17.1173 121.515 16.5805C 121.473 16.247 121.363 15.9263 121.19 15.6395C 120.984 15.233 120.543 15.2392 120.196 15.5266C 119.795 15.8509 119.591 16.3332 119.257 16.7098C 117.961 18.1548 117.103 19.8605 116.254 21.5918C 116.083 21.9366 115.878 22.2681 115.723 22.6191C 115.567 22.9711 115.463 23.3806 115.337 23.7613C 115.136 24.3412 114.914 24.9169 114.761 25.5091C 114.573 26.2418 114.437 26.9828 114.295 27.7289C 114.22 28.1835 114.176 28.6433 114.162 29.1041C 114.17 29.3401 114.198 29.5762 114.245 29.8081C 114.251 29.8631 114.251 29.9184 114.245 29.9733C 114.155 30.5115 114.148 31.0608 114.226 31.601C 114.238 31.7642 114.227 31.9284 114.194 32.0885C 114.159 32.6683 114.396 33.1948 114.498 33.7449C 114.615 34.3535 115.127 34.6336 115.525 34.9918C 115.72 35.1086 115.951 35.1487 116.173 35.1047C 116.593 35.0386 117.007 34.9433 117.414 34.8194C 118.295 34.568 118.926 33.9594 119.519 33.2995C 119.96 32.8079 120.41 32.3235 120.861 31.8483C 121.259 31.4214 121.69 31.0212 122.066 30.5758C 122.459 30.1078 122.825 29.6162 123.16 29.1051C 123.277 28.8578 123.366 28.5971 123.426 28.3303C 123.63 27.7679 123.837 27.2045 124.054 26.6452C 124.426 25.6658 124.967 24.7621 125.652 23.9769C 126.111 23.3958 126.725 22.9619 127.42 22.7269C 127.564 22.6706 127.718 22.6492 127.871 22.6645C 128.024 22.6799 128.171 22.7314 128.301 22.8151C 128.467 22.9157 128.641 23.004 128.819 23.0789C 129.175 23.2379 129.461 23.5202 129.626 23.8753C 129.908 24.4643 130.313 24.998 130.439 25.6528C 130.49 25.9894 130.519 26.3301 130.526 26.6708L 130.526 27.2989C 130.882 27.0906 131.194 26.8925 131.521 26.7232C 132.321 26.3024 133.14 25.896 133.938 25.4896C 134.148 25.3818 134.369 25.2977 134.585 25.1899C 134.645 25.1532 134.69 25.0956 134.711 25.0278C 135.016 24.023 135.318 23.0163 135.619 22.0074C 135.813 21.3568 136.367 21.2624 136.899 21.3958C 137.193 21.4624 137.461 21.6185 137.666 21.8434C 137.871 22.0683 138.005 22.3513 138.048 22.655C 138.099 22.9937 138.076 23.3385 137.98 23.6669C 137.75 24.5659 137.482 25.4506 137.222 26.3393C 137.183 26.4758 137.129 26.6062 137.083 26.7396L 137.148 26.7786C 137.229 26.6995 137.306 26.6159 137.378 26.5282C 137.99 25.6979 138.593 24.8615 139.214 24.0384C 139.656 23.4914 140.208 23.0476 140.834 22.7371C 140.983 22.655 141.1 22.7166 141.242 22.7956C 142.126 23.2708 141.981 24.0969 141.923 24.8584C 141.87 25.458 141.793 26.0551 141.693 26.6482C 141.643 26.9479 141.543 27.2373 141.472 27.5308C 141.452 27.6109 141.44 27.695 141.427 27.7802L 141.548 27.8746C 141.558 27.8069 141.578 27.7412 141.608 27.6796C 142.213 26.8689 142.794 26.053 143.438 25.2679C 143.858 24.8112 144.302 24.3771 144.766 23.9666C 145.039 23.6998 145.317 23.4401 145.57 23.1528C 145.645 23.0649 145.736 22.9939 145.84 22.9446C 145.943 22.8952 146.055 22.8686 146.169 22.8664C 146.386 22.8551 146.603 22.8291 146.817 22.7884C 147.22 22.7115 147.633 22.8716 147.879 23.202C 148.155 23.6803 148.404 24.178 148.644 24.6665C 148.8 25.0442 148.762 25.4752 148.54 25.818C 148.217 26.4686 147.844 27.068 147.569 27.7186C 147.322 28.2718 147.16 28.8609 146.96 29.4335C 146.6 30.4711 146.247 31.5066 145.884 32.5441C 145.589 33.3476 145.217 34.1193 144.772 34.8481C 144.75 34.886 144.732 34.9263 144.718 34.9682C 144.713 35.0104 144.713 35.0532 144.718 35.0955C 144.938 34.9107 145.146 34.7701 145.323 34.5844C 145.822 34.0897 146.331 33.6084 146.8 33.0778C 147.27 32.5472 147.578 32.0495 148.026 31.5938C 148.404 31.2069 148.449 30.7287 148.553 30.2597C 148.719 29.4387 148.971 28.6382 149.301 27.8685C 149.584 27.2373 149.836 26.5928 150.114 25.9647C 150.504 25.1181 150.984 24.3166 151.546 23.5735C 152.097 22.8274 152.622 22.0629 153.186 21.3311C 153.462 20.9453 153.815 20.6234 154.222 20.387C 154.408 20.2783 154.584 20.1522 154.747 20.0103C 154.824 19.9405 154.918 19.8921 155.019 19.8698C 155.12 19.8475 155.225 19.8521 155.324 19.8831C 155.469 19.9313 155.625 19.9313 155.77 19.8831C 156.023 19.7716 156.302 19.7378 156.573 19.7857C 156.844 19.8337 157.095 19.9614 157.296 20.153C 157.726 20.4547 157.942 20.9791 157.851 21.4974C 157.688 22.2517 157.81 23.0686 157.38 23.7757C 157.164 24.1349 156.948 24.4992 156.732 24.8677C 156.59 25.1191 156.473 25.3787 156.331 25.6292C 156.11 26.0171 155.874 26.3978 155.657 26.7847C 155.204 27.5575 154.681 28.2872 154.095 28.9645C 153.406 29.803 152.704 30.631 151.99 31.4481C 151.805 31.6564 151.549 31.7991 151.342 31.992C 151.257 32.0715 151.2 32.1777 151.181 32.2937C 151.121 32.7597 151.088 33.2297 151.083 33.6997C 151.117 34.0281 151.168 34.3535 151.239 34.6757C 151.274 34.9528 151.479 34.9723 151.669 34.9754C 151.809 34.975 151.945 34.9329 152.061 34.8543C 152.414 34.6182 152.752 34.3606 153.072 34.0805C 153.396 33.7777 153.671 33.4134 153.992 33.1045C 155.073 31.9783 156.073 30.773 156.982 29.4982C 157.123 29.2888 157.254 29.0713 157.371 28.8475L 157.154 28.747C 156.769 28.5683 156.454 28.2637 156.26 27.8818C 156.216 27.7788 156.207 27.6643 156.233 27.5555C 156.44 26.7367 156.893 26.0042 157.529 25.4608C 158.263 24.795 159.019 24.1555 159.797 23.5438C 160.399 23.0717 161.048 22.6591 161.663 22.2065C 162.335 21.728 163.052 21.3189 163.804 20.9853C 163.881 20.9439 163.967 20.9223 164.055 20.9223C 164.142 20.9223 164.228 20.9439 164.306 20.9853C 164.411 21.0263 164.52 21.0571 164.629 21.0735C 164.76 21.0869 164.887 21.1197 165.006 21.1721C 165.439 21.4512 165.913 21.7057 166.085 22.2486C 166.105 22.3164 166.105 22.3892 166.085 22.457C 166.039 22.5904 165.968 22.7135 165.929 22.8469C 165.907 22.9339 165.858 23.0111 165.789 23.067C 165.719 23.1229 165.634 23.1544 165.546 23.1569C 165.357 23.1753 165.174 23.2379 165.012 23.3385C 163.986 24.0968 162.966 24.8628 161.951 25.6363C 161.53 25.9617 161.115 26.287 160.698 26.6123C 160.668 26.6406 160.642 26.6723 160.62 26.7067L 160.671 26.8073ZM 128.009 25.8118C 127.961 25.8118 127.942 25.7954 127.932 25.8118C 127.891 25.8313 127.853 25.8529 127.815 25.8765C 127.482 26.1059 127.215 26.4215 127.041 26.7909C 126.358 28.114 125.815 29.5073 125.422 30.9473C 125.232 31.62 125.246 32.3356 125.463 32.9998C 125.561 33.3251 125.658 33.3416 125.904 33.1045C 126.506 32.5834 126.921 31.8738 127.084 31.0868C 127.103 30.9637 127.134 30.8395 127.157 30.7153C 127.177 30.4855 127.216 30.2566 127.271 30.0318C 127.7 28.8855 127.945 27.6766 127.997 26.4532C 128.012 26.2346 128.009 26.0202 128.009 25.8149L 128.009 25.8118ZM 152.505 28.0901L 152.576 28.1158C 152.625 28.044 152.677 27.9762 152.722 27.9003C 152.917 27.5986 153.105 27.2927 153.305 26.9972C 154.041 25.9124 154.795 24.8451 155.505 23.7418C 155.792 23.2544 156.046 22.7474 156.266 22.226C 156.285 22.1185 156.285 22.0083 156.266 21.9007C 156.024 21.9756 155.81 22.0372 155.599 22.1121C 155.554 22.1285 155.518 22.1963 155.492 22.2455C 155.168 22.8408 154.87 23.436 154.555 24.0312C 154.306 24.5074 154.051 24.9785 153.795 25.4506C 153.662 25.6979 153.529 25.9483 153.389 26.1957C 153.302 26.3516 153.195 26.4984 153.117 26.6575C 152.923 27.0618 152.738 27.4713 152.554 27.8818C 152.533 27.9485 152.517 28.0173 152.505 28.0871L 152.505 28.0901ZM 79.6007 28.8773C 79.497 28.926 79.4063 28.9992 79.3359 29.0907C 79.2656 29.1823 79.2177 29.2896 79.1963 29.4038C 79.0668 29.8644 78.8461 30.2933 78.5479 30.664C 78.1466 31.2654 77.7381 31.8648 77.3045 32.4467C 77.0034 32.8936 76.6559 33.3061 76.2679 33.6772C 75.751 34.1267 75.1873 34.5173 74.5868 34.842C 74.3963 34.917 74.1906 34.9431 73.9878 34.918C 73.785 34.893 73.5914 34.8175 73.4241 34.6983C 72.8223 34.3665 72.331 33.8604 72.0123 33.2441C 71.8772 32.9013 71.8509 32.5257 71.9336 32.1665C 72.0083 31.6462 72.1091 31.1289 72.2321 30.6178C 72.3756 29.9282 72.5595 29.248 72.7827 28.5807C 73.1054 27.6694 73.528 26.7847 73.9192 25.896C 74.2692 25.1119 74.6191 24.3248 75.0114 23.5633C 75.2635 23.0101 75.5912 22.4949 75.9825 22.0311C 76.3163 21.598 76.9072 21.4615 77.3943 21.7057C 77.5526 21.8248 77.6666 21.9931 77.719 22.184C 77.8138 22.4231 77.8723 22.6755 77.8904 22.9321C 77.8862 23.1319 77.8423 23.3288 77.7613 23.5109C 77.5597 24.0446 77.3529 24.5782 77.1129 25.1016C 76.6793 26.1043 76.2124 27.0906 75.7919 28.0963C 75.3935 29.0405 75.0335 29.997 74.6645 30.9534C 74.5707 31.1997 74.5092 31.4645 74.4285 31.718C 74.3428 32.0084 74.3821 32.3214 74.5384 32.5801C 74.6483 32.7884 74.7361 32.7987 74.9135 32.6386C 75.6036 31.9883 76.207 31.2489 76.7085 30.4393C 77.6353 29.0107 78.4541 27.5103 79.2347 26.0099C 79.4363 25.6199 79.6663 25.2453 79.8377 24.842C 79.934 24.5712 80.0022 24.2908 80.0414 24.0056C 80.0999 23.7131 80.1453 23.4206 80.1876 23.1271C 80.2199 22.8829 80.2421 22.6396 80.2582 22.3954C 80.2925 22.1021 80.4335 21.8326 80.6535 21.64C 80.7559 21.5478 80.8879 21.4968 81.0246 21.4968C 81.1614 21.4968 81.2934 21.5478 81.3957 21.64C 81.7216 21.8582 81.9971 22.1458 82.2029 22.4831C 82.4087 22.8203 82.54 23.199 82.5877 23.593C 82.6341 24.2427 82.6341 24.8954 82.5877 25.545C 82.5877 26.1084 82.5877 26.6739 82.5715 27.2373C 82.5292 28.0635 82.4778 28.8896 82.3931 29.7137C 82.3386 30.2576 82.2186 30.7913 82.1178 31.3958C 82.3063 31.2952 82.4425 31.2131 82.5917 31.1392C 82.9447 30.9565 83.3007 30.7779 83.6566 30.6014C 84.0318 30.4034 84.297 30.0442 84.3756 29.6265C 84.6187 28.7634 84.8718 27.9044 85.1441 27.0546C 85.3699 26.3455 85.6362 25.6456 85.8701 24.9364C 86.0476 24.3894 86.1928 23.8332 86.3582 23.2769C 86.3885 23.1302 86.3985 22.9803 86.3905 22.8315C 86.3793 22.7312 86.3907 22.6295 86.4237 22.5342C 86.4567 22.4389 86.5105 22.3525 86.5811 22.2815C 86.6521 22.21 86.7377 22.1555 86.8318 22.1218C 86.926 22.0881 87.0263 22.076 87.1256 22.0865C 87.8315 22.0865 88.3085 22.4795 88.726 22.9742C 89.1445 23.4689 89.1284 24.0477 88.966 24.6439C 88.8884 24.9272 88.8268 25.2166 88.7583 25.5029L 88.8198 25.5419C 88.8833 25.4916 88.9428 25.4372 88.9983 25.3787C 89.3512 24.9005 89.7586 24.4633 90.2104 24.0774C 90.6874 23.733 91.232 23.4977 91.8068 23.3878C 92.0434 23.3603 92.2831 23.3819 92.5113 23.4512C 92.7396 23.5205 92.9517 23.6361 93.1348 23.7911C 93.2458 23.866 93.3486 23.9574 93.4586 24.0282C 93.9678 24.3822 94.2744 24.9621 94.2814 25.584C 94.3369 25.9298 94.3631 26.2788 94.3621 26.6287C 94.3268 27.1686 94.233 27.7063 94.1554 28.2554C 94.0908 28.7018 94.0293 29.1472 93.9255 29.5864C 93.8164 30.0702 93.67 30.5444 93.4878 31.0047C 93.2034 31.6923 92.8827 32.3656 92.5358 33.0193C 92.2787 33.5427 91.9661 34.0353 91.603 34.49C 91.2824 34.8184 90.9143 35.0965 90.5109 35.314C 90.277 35.4284 90.0315 35.5165 89.7788 35.5768C 89.5715 35.4651 89.3548 35.3724 89.1314 35.2997C 88.6461 35.1518 88.2153 34.8598 87.894 34.4612C 87.7316 34.2527 87.6366 33.998 87.6222 33.7323C 87.6077 33.4665 87.6745 33.2028 87.8134 32.9772C 87.8565 32.9109 87.9138 32.8553 87.981 32.8148C 88.0483 32.7743 88.1237 32.7498 88.2016 32.7432C 88.363 32.7771 88.4971 32.891 88.5576 33.046C 88.6352 33.592 89.0961 33.7326 89.4904 34.0209C 89.7173 33.556 89.9472 33.124 90.1388 32.6745C 90.404 32.0567 90.6662 31.4348 90.88 30.7964C 91.0081 30.3644 91.1089 29.9241 91.1825 29.4787C 91.2693 29.0435 91.364 28.6064 91.4215 28.1774C 91.5345 27.344 91.7452 26.521 91.6777 25.6681C 91.6777 25.608 91.6709 25.5481 91.6575 25.4896C 91.5062 24.9918 91.234 24.9138 90.9193 25.3202C 90.2167 26.1741 89.5677 27.0721 88.9761 28.0091C 88.5122 28.789 88.004 29.5413 87.5179 30.312C 87.4 30.5195 87.3004 30.7372 87.2204 30.9627C 87.1135 31.2367 87.0086 31.5127 86.9219 31.796C 86.7888 32.225 86.6698 32.6611 86.5468 33.0973C 86.2687 34.1886 85.9179 35.2595 85.497 36.3023C 85.3447 36.6544 85.2348 37.0279 85.0886 37.383C 84.8466 37.9823 84.5743 38.5673 84.3403 39.1687C 83.9713 40.1098 83.6274 41.0601 83.2654 42.0012C 83.1806 42.2219 83.0506 42.424 82.9669 42.6519C 82.8438 42.9772 82.7531 43.3025 82.6432 43.6443C 82.5845 43.7792 82.516 43.9096 82.4384 44.0343C 82.3931 44.1194 82.3094 44.2005 82.3023 44.2877C 82.2556 44.5386 82.114 44.7608 81.908 44.9066C 81.8778 44.9238 81.8438 44.9328 81.8092 44.9328C 81.7746 44.9328 81.7406 44.9238 81.7104 44.9066C 81.6053 44.7727 81.5119 44.6299 81.431 44.4797C 81.3342 44.3072 81.2142 44.2877 81.0781 44.4478C 81.0065 44.266 80.964 44.0737 80.952 43.8783C 80.9913 43.4811 80.7221 43.2276 80.6283 42.8756C 80.5638 42.6953 80.5224 42.5073 80.5053 42.3163C 80.5154 42.1726 80.5517 42.033 80.6122 41.9027C 80.7776 41.4604 80.7544 40.9821 80.9349 40.5429C 81.188 39.9117 81.3988 39.2642 81.6125 38.6197C 81.908 37.7248 82.1924 36.8268 82.4747 35.9288C 82.62 35.4629 82.7632 34.9949 82.9023 34.529C 83.1353 33.749 83.3662 32.9659 83.5951 32.1829C 83.6005 32.1311 83.6005 32.0788 83.5951 32.0269L 83.1585 32.2968C 82.4808 32.6796 81.9383 33.2615 81.5994 33.9635C 81.503 34.2581 81.4368 34.5622 81.4018 34.8707C 81.2787 35.4659 81.1628 36.0612 81.0236 36.6544C 80.9127 37.1131 80.7191 37.5585 80.6535 38.0244C 80.5539 38.6165 80.3822 39.1936 80.1423 39.7424C 80.0253 40.0349 79.8185 40.2956 79.7016 40.588C 79.3779 41.3526 79.0542 42.1172 78.7849 42.9054C 78.2928 44.4181 77.3832 45.6907 76.5169 47.0022C 76.2416 47.425 75.8887 47.7955 75.5751 48.1927C 75.4898 48.3042 75.4158 48.4242 75.3542 48.5509C 75.0211 49.1458 74.593 49.6803 74.0876 50.1323C 73.8194 50.3992 73.5854 50.6988 73.3071 50.9554C 72.981 51.2701 72.6288 51.5554 72.2543 51.8082C 71.7702 52.1818 71.2297 52.473 70.6539 52.6703C 70.1396 52.7976 69.6152 52.8817 69.0899 52.9577C 68.8125 53.009 68.5292 53.0131 68.2508 52.9731C 67.7675 52.8648 67.3411 52.5772 67.0548 52.1664C 66.8128 51.8411 66.6212 51.4891 66.4074 51.1504C 66.1936 50.8117 66.3137 50.4833 66.3873 50.1549C 66.4579 49.8306 66.5547 49.5125 66.6797 49.2046C 66.8491 48.7849 67.0448 48.3764 67.2656 47.9813C 67.7946 47.0471 68.3423 46.1239 68.9083 45.2124C 69.6469 44.0305 70.5165 42.939 71.5 41.9591C 72.0192 41.4124 72.509 40.8376 72.9673 40.2371C 74.4194 38.4663 75.9795 36.7902 77.6383 35.2186C 77.8699 34.9854 78.1263 34.7793 78.4027 34.6039C 78.5118 34.534 78.6026 34.4383 78.6676 34.3251C 78.7325 34.2118 78.7697 34.0842 78.7758 33.9532C 78.8494 33.4781 78.9402 33.0029 79.0209 32.5277C 79.1015 32.0526 79.1862 31.5035 79.2679 30.9883C 79.3486 30.4752 79.4293 29.9477 79.51 29.4233L 79.6007 28.8773ZM 78.0427 37.1028C 77.9979 37.1353 77.9558 37.1713 77.9166 37.2106C 77.6091 37.578 77.3146 37.9598 77 38.3169C 76.284 39.1307 75.562 39.9436 74.8298 40.744C 74.5061 41.1032 74.134 41.4214 73.8033 41.7765C 73.6732 41.916 73.6086 42.1018 73.4785 42.2639C 72.7273 43.2399 71.9437 44.2169 71.2277 45.2124C 70.781 45.8405 70.2173 46.3875 69.9319 47.1387C 69.6768 47.7134 69.3924 48.2727 69.0798 48.8177C 68.993 48.9881 68.9215 49.1666 68.863 49.3483C 68.7329 49.7516 68.6139 50.159 68.4939 50.5654C 68.4757 50.6158 68.4757 50.6711 68.4939 50.7214C 68.5715 50.8651 68.6653 51.0016 68.753 51.1412C 68.7776 51.1952 68.813 51.2434 68.857 51.2827C 68.901 51.322 68.9526 51.3514 69.0084 51.3692C 69.0643 51.387 69.1232 51.3927 69.1813 51.3859C 69.2394 51.3792 69.2955 51.3601 69.346 51.33C 69.7228 51.1404 70.0855 50.923 70.4311 50.6793C 71.2684 49.9881 72.0111 49.1859 72.6395 48.2943C 73.4353 47.3015 74.1239 46.2246 74.6937 45.0821C 74.9882 44.4766 75.3411 43.9111 75.6658 43.3118C 75.9179 42.8202 76.1317 42.306 76.3616 41.8052C 77.0675 40.3017 77.7422 38.7952 78.0427 37.1028ZM 67.8263 25.2422C 67.8979 25.2135 67.9675 25.1786 68.034 25.1386C 68.6814 24.6604 69.2875 24.1616 69.938 23.7028C 70.5696 23.2607 71.2182 22.844 71.8822 22.4539C 72.336 22.1552 72.8604 21.9818 73.4009 21.9489C 73.5643 21.9243 73.7236 21.8771 73.8749 21.8094C 74.13 21.7345 74.3791 21.6503 74.6382 21.5918C 74.7259 21.5681 74.819 21.5774 74.9005 21.6179C 74.982 21.6585 75.0464 21.7275 75.082 21.8125C 75.1466 21.9227 75.1718 22.0522 75.1534 22.1791C 75.135 22.3061 75.0742 22.4227 74.9811 22.5093C 74.5821 22.7787 74.1679 23.024 73.7407 23.2441C 73.1707 23.5084 72.6281 23.8302 72.1212 24.2047C 71.5353 24.646 70.904 25.0308 70.3171 25.4701C 69.9541 25.7574 69.6062 26.0653 69.2744 26.3876C 69.207 26.4664 69.1481 26.5524 69.0989 26.6441C 68.9275 26.8956 68.7591 27.146 68.5846 27.3933C 68.2599 27.8326 67.9917 28.2913 67.6478 28.6946C 67.1527 29.2868 67.0004 30.0452 66.6313 30.6928C 66.1997 31.4317 65.8084 32.1932 65.394 32.9413C 65.2447 33.2081 65.0693 33.4688 64.924 33.7285C 64.8986 33.7888 64.8605 33.8426 64.8123 33.8862C 64.7642 33.9298 64.7071 33.9621 64.6453 33.9807C 64.5835 33.9993 64.5184 34.0038 64.4547 33.9939C 64.391 33.984 64.3302 33.96 64.2766 33.9235C 64.199 33.8812 64.1114 33.8614 64.0235 33.866C 63.6252 33.9378 63.4245 33.6772 63.2369 33.4042C 63.1486 33.2846 63.0773 33.153 63.0252 33.0132C 62.9711 32.8657 62.9471 32.7086 62.9546 32.5513C 63 32.0721 63.0675 31.5969 63.129 31.1187L 63.0252 31.0242C 63.0071 31.1034 62.9779 31.1794 62.9384 31.25C 62.7539 31.4902 62.5431 31.7149 62.3646 31.9581C 62.1448 32.265 61.9471 32.5934 61.7364 32.9054C 61.6547 33.0285 61.565 33.1455 61.4671 33.2574C 61.2144 33.4852 60.9892 33.7429 60.7965 34.0251C 60.5989 34.3791 60.373 34.7178 60.1229 35.037C 59.8347 35.4972 59.4581 35.8934 59.0156 36.2018C 58.6203 36.4429 58.2472 36.7159 57.866 36.9797C 57.3524 37.3265 56.7571 37.5273 56.1416 37.5616C 55.768 37.6203 55.3901 37.6453 55.0122 37.6365C 54.3154 37.5616 53.5903 37.4713 53.0125 37.0577C 52.6535 36.8011 52.2803 36.5435 51.9435 36.2541C 51.7892 36.0776 51.6853 35.8614 51.643 35.6291C 51.4743 35.0016 51.3197 34.3703 51.1791 33.7356C 51.1665 33.6771 51.1448 33.6209 51.1146 33.5694C 50.9033 33.193 50.8032 32.7625 50.8262 32.3297L 50.8262 31.0899C 50.8262 30.6763 50.7586 30.2566 50.7455 29.8399C 50.7387 29.5259 50.7539 29.2117 50.7909 28.8999C 50.8494 28.3919 50.924 27.8839 51.0077 27.381C 51.0924 26.8761 51.1862 26.326 51.2901 25.8016C 51.4131 25.194 51.5321 24.5813 51.6884 23.9799C 51.8074 23.5294 51.9536 23.0871 52.1281 22.656C 52.3872 22.0044 52.6504 21.3537 52.961 20.7359C 53.3614 19.8944 53.8041 19.0764 54.2891 18.2821C 54.9366 17.2435 55.6888 16.2552 56.3947 15.2464C 56.5369 15.036 56.7326 14.8667 56.9615 14.7579C 57.1313 14.6579 57.2872 14.5353 57.4254 14.3936C 57.6129 14.2304 57.748 13.9677 58.0244 13.9574C 58.2422 13.9379 58.462 13.9605 58.6718 14.0221C 58.8402 14.1021 59.0348 14.1021 59.2032 14.0221C 59.5017 13.862 59.8365 13.7819 60.1753 13.7911C 60.6493 13.7829 61.1051 13.9677 61.4419 14.3022C 61.5892 14.45 61.7606 14.5732 61.9461 14.6665C 62.3697 14.9067 62.644 15.3429 62.6793 15.8283C 62.7993 16.7263 62.8961 17.6345 62.9415 18.5387C 62.9435 18.9471 62.884 19.3525 62.766 19.7435C 62.6309 20.2443 62.4685 20.7369 62.2809 21.2213C 62.2059 21.382 62.1027 21.5273 61.9764 21.6503C 61.7646 21.8843 61.5387 22.1019 61.328 22.3297C 61.2617 22.3995 61.1823 22.4548 61.0944 22.4924C 61.0065 22.53 60.912 22.549 60.8167 22.5483C 60.0029 22.5904 60.0846 22.3533 60.3528 21.7406C 60.5404 21.3866 60.7017 21.0192 60.8359 20.6415C 61.0496 19.8636 61.2241 19.0723 61.3804 18.2811C 61.4611 17.8808 61.4671 17.4683 61.5095 17.0619C 61.5436 16.5362 61.4122 16.0131 61.1344 15.5686C 61.0838 15.4965 61.0187 15.4363 60.9433 15.392C 60.8679 15.3477 60.784 15.3205 60.6973 15.3121C 60.6107 15.3038 60.5233 15.3145 60.441 15.3435C 60.3588 15.3725 60.2837 15.4192 60.2207 15.4804C 59.7992 15.8252 59.5723 16.3199 59.2294 16.7098C 58.4125 17.6571 57.7119 18.702 57.143 19.8215C 56.6024 20.8131 56.0873 21.8188 55.5981 22.8377C 55.435 23.2181 55.2976 23.6093 55.1866 24.0087C 54.9789 24.6347 54.756 25.2556 54.5876 25.8929C 54.4515 26.4009 54.4091 26.9315 54.2629 27.4426C 54.1463 28.0808 54.0912 28.729 54.0985 29.3781C 54.0985 29.5413 54.1792 29.7034 54.1762 29.8789C 54.1762 30.1694 54.1147 30.4557 54.1046 30.7451C 54.0945 31.0345 54.1268 31.2367 54.1369 31.4799C 54.1449 31.6195 54.1449 31.758 54.1369 31.8966C 54.1288 32.6433 54.2652 33.3843 54.5382 34.0774C 54.5624 34.1462 54.6017 34.2098 54.6522 34.2621C 54.7752 34.3955 54.9174 34.5064 55.0313 34.647C 55.3419 35.0339 55.8441 35.2094 56.3272 35.0985C 56.8672 35.0199 57.3925 34.8587 57.8852 34.6203C 58.4402 34.3185 58.9364 33.9161 59.3494 33.4329C 60.1975 32.5216 61.0628 31.6297 61.8947 30.7092C 62.2194 30.3418 62.4907 29.9087 62.8023 29.5187C 63.0615 29.1688 63.3499 28.8414 63.6635 28.5417C 63.9902 28.2082 64.2151 27.7884 64.3119 27.3307C 64.5277 26.6246 64.7506 25.9186 64.9825 25.2135C 65.1761 24.5977 65.3577 23.9799 65.5775 23.3744C 65.7994 22.7689 66.0384 22.265 66.2713 21.7088C 66.3167 21.601 66.352 21.4871 66.4074 21.3835C 66.4657 21.2578 66.5639 21.1558 66.686 21.0938C 66.8082 21.0318 66.9474 21.0135 67.0811 21.0417C 67.7365 21.1074 68.275 21.5857 68.4223 22.2291C 68.5151 22.7176 68.4495 23.2215 68.2377 23.671C 68.0724 24.1072 67.9362 24.5557 67.794 25.0011C 67.796 25.0832 67.8071 25.1632 67.8263 25.2422ZM 97.8452 22.1347C 97.3713 22.1932 96.9578 22.223 96.5494 22.2979C 95.8312 22.4548 95.0925 22.4898 94.3631 22.4015C 94.1429 22.3447 93.9264 22.2741 93.7147 22.1901C 93.391 22.0926 93.0411 22.0208 92.7103 21.9171C 92.3535 21.802 92.0317 21.5954 91.776 21.3172C 91.5203 21.039 91.3392 20.6985 91.2501 20.3285C 91.235 20.2378 91.2408 20.1448 91.267 20.0568C 91.2933 19.9689 91.3393 19.8883 91.4014 19.8215C 91.4725 19.7657 91.5584 19.7328 91.648 19.727C 91.7377 19.7211 91.827 19.7426 91.9046 19.7887C 92.564 20.1595 93.3122 20.3354 94.0646 20.2967C 94.4337 20.2731 94.8098 20.348 95.1789 20.3254C 95.7457 20.2895 96.3124 20.2084 96.8801 20.1499C 97.4469 20.0914 98.0883 20.0196 98.6933 19.9775C 98.7691 19.9783 98.8437 19.9589 98.9098 19.921C 98.9758 19.8832 99.0309 19.8283 99.0695 19.762C 99.6715 18.8712 100.294 17.9927 100.893 17.1009C 101.185 16.6021 101.6 16.1885 102.098 15.9001C 102.199 15.8478 102.315 15.8375 102.422 15.8704C 102.725 16.0171 102.985 16.2419 103.174 16.522C 103.297 16.7037 103.194 16.8925 103.138 17.0783C 103.083 17.263 103.054 17.4652 103.005 17.6571C 102.979 17.794 102.936 17.9273 102.879 18.0543C 102.661 18.4709 102.432 18.8773 102.212 19.294C 102.178 19.3761 102.153 19.4613 102.137 19.5475L 106.086 19.5475C 106.086 19.6912 106.183 19.7076 106.325 19.7107C 106.591 19.7107 106.854 19.7661 107.119 19.7979L 109.063 20.0257C 107.571 19.9852 106.079 20.1063 104.612 20.387L 104.836 20.4619L 104.836 20.5009C 104.615 20.5245 104.392 20.5368 104.187 20.5758C 104.101 20.5758 104.026 20.6671 103.938 20.6866C 103.754 20.7318 103.565 20.7646 103.377 20.7944C 102.789 20.8888 102.196 20.976 101.609 21.0807C 101.564 21.0953 101.522 21.1198 101.488 21.1525C 101.453 21.1851 101.426 21.2251 101.408 21.2696C 101.062 22.1214 100.722 22.9773 100.384 23.8332C 100.1 24.5557 99.8016 25.2751 99.5424 26.0068C 99.2203 26.9226 98.9127 27.8437 98.6197 28.7695C 98.4886 29.1852 98.3807 29.608 98.295 30.0359C 98.2188 30.4147 98.1693 30.7984 98.1467 31.1843C 98.0883 32.1244 98.0429 33.0686 98.0035 34.0086C 97.9499 34.5604 98.0726 35.115 98.3535 35.5901C 98.3787 35.6416 98.4147 35.6868 98.4588 35.7227C 98.503 35.7586 98.5543 35.7843 98.6092 35.7979C 98.6641 35.8116 98.7212 35.8129 98.7767 35.8019C 98.8321 35.7908 98.8846 35.7676 98.9303 35.7338C 99.1599 35.5868 99.4056 35.4676 99.6624 35.3787C 99.7693 35.3613 99.8792 35.3613 99.9861 35.3787C 100 35.5008 99.9932 35.624 99.966 35.743C 99.8238 36.0304 99.5979 36.2705 99.3185 36.4306C 98.8708 36.7272 98.3464 36.8883 97.8089 36.8945C 97.3455 36.8825 96.9018 36.7015 96.5585 36.3844C 95.9444 35.8424 95.4952 35.1331 95.2636 34.3401C 94.9796 33.3313 94.8906 32.2759 95.0015 31.2326C 95.065 30.2166 95.2616 29.2139 95.5863 28.2492C 95.9343 27.185 96.2771 26.1207 96.6402 25.0637C 96.8439 24.4684 97.0707 23.8824 97.3138 23.2995C 97.4308 23.0193 97.6062 22.7628 97.7474 22.4929C 97.7877 22.3759 97.82 22.2568 97.8452 22.1347ZM 104.916 25.7821C 104.548 25.9637 104.251 26.2644 104.071 26.6349C 103.779 27.1737 103.515 27.7279 103.281 28.2944C 102.957 29.2057 102.685 30.1427 102.363 31.0602C 102.173 31.7116 102.202 32.4089 102.445 33.0419C 102.522 33.3026 102.636 33.3323 102.821 33.1271C 103.112 32.8017 103.385 32.4764 103.65 32.1244C 103.765 31.9951 103.846 31.8401 103.89 31.6728C 103.957 31.2398 104.184 30.8364 104.136 30.3705C 104.141 30.2576 104.168 30.1469 104.216 30.0452C 104.584 29.0867 104.821 28.083 104.919 27.0618C 104.935 26.6513 104.916 26.2346 104.916 25.7821ZM 88.6776 47.031L 88.6776 41.174L 86.6728 41.1935L 86.6728 40.4875L 91.4508 40.4875L 91.4508 41.1997L 89.4813 41.1802L 89.4813 47.0381L 88.6776 47.031ZM 93.0542 41.7826C 93.0542 42.2516 93.0542 42.8438 93.0249 43.0839L 93.0451 43.0839C 93.209 42.7957 93.4453 42.5571 93.7297 42.3925C 94.0141 42.2278 94.3364 42.1431 94.6636 42.1469C 95.9595 42.1469 96.3709 43.0388 96.3709 44.2847L 96.3709 47.0217L 95.6065 47.0217L 95.6065 44.5874C 95.6065 43.5458 95.4573 42.7884 94.4861 42.7884C 93.6824 42.7884 93.0572 43.361 93.0572 44.6921L 93.0572 47.0248L 92.2928 47.0248L 92.2928 39.9435L 93.0572 39.9435L 93.0542 41.7826ZM 98.2496 44.8091C 98.2214 45.2678 98.3918 45.7163 98.7175 46.0406C 99.0422 46.3639 99.491 46.5301 99.9478 46.4973C 100.418 46.5004 100.881 46.3806 101.292 46.1494L 101.321 46.8524C 100.877 47.0453 100.396 47.1408 99.9115 47.1326C 98.3535 47.1326 97.4761 46.1751 97.4761 44.61C 97.4761 43.1199 98.3736 42.1531 99.6886 42.1531C 100.909 42.1531 101.667 42.9125 101.667 44.4766C 101.667 44.5618 101.667 44.7024 101.648 44.8019L 98.2496 44.8091ZM 100.919 44.22C 100.919 43.2276 100.424 42.7494 99.6685 42.7494C 98.9142 42.7494 98.3434 43.2728 98.2698 44.22L 100.919 44.22ZM 107.356 40.6014C 107.206 40.5657 107.053 40.5471 106.899 40.546C 106.313 40.546 106.105 40.9206 106.105 41.6718L 106.105 42.2906L 107.336 42.2906L 107.336 42.8982L 106.105 42.8982L 106.105 47.031L 105.36 47.031L 105.36 42.8982L 104.269 42.8982L 104.269 42.2906L 105.36 42.2906L 105.36 41.6913C 105.36 40.6301 105.752 39.9117 106.805 39.9117C 107.009 39.9087 107.214 39.9333 107.41 39.9866L 107.356 40.6014ZM 111.489 46.2151C 111.325 46.5027 111.089 46.7404 110.804 46.9034C 110.519 47.0664 110.196 47.1487 109.87 47.1418C 108.554 47.1418 108.152 46.25 108.152 45.0041L 108.152 42.267L 108.917 42.267L 108.917 44.7044C 108.917 45.7923 109.095 46.5045 110.047 46.5045C 110.867 46.5045 111.466 45.9216 111.466 44.6008L 111.466 42.267L 112.23 42.267L 112.23 45.6127C 112.23 46.1207 112.23 46.6338 112.276 47.0381L 111.538 47.0381C 111.518 46.8124 111.498 46.4655 111.498 46.2141L 111.489 46.2151ZM 114.838 42.2906L 116.109 42.2906L 116.109 42.8982L 114.838 42.8982L 114.838 45.2606C 114.838 46.0201 115.007 46.4778 115.658 46.4778C 115.833 46.4778 116.005 46.4388 116.163 46.3649L 116.193 46.9725C 115.97 47.0453 115.737 47.0833 115.503 47.0864C 114.381 47.0864 114.093 46.4357 114.093 45.4372L 114.093 42.8951L 113.037 42.8951L 113.037 42.2865L 114.093 42.2865L 114.093 41.1802L 114.839 40.9267L 114.838 42.2906ZM 120.407 46.2141C 120.243 46.5019 120.006 46.7398 119.722 46.903C 119.437 47.0661 119.114 47.1486 118.787 47.1418C 117.472 47.1418 117.07 46.25 117.07 45.0041L 117.07 42.267L 117.834 42.267L 117.834 44.7044C 117.834 45.7923 118.013 46.5045 118.966 46.5045C 119.785 46.5045 120.385 45.9216 120.385 44.6008L 120.385 42.267L 121.168 42.267L 121.168 45.6127C 121.168 46.1207 121.168 46.6338 121.214 47.0381L 120.474 47.0381C 120.455 46.8124 120.436 46.4655 120.436 46.2141L 120.407 46.2141ZM 123.435 43.1229C 123.56 42.7734 123.811 42.4853 124.137 42.3169C 124.463 42.1485 124.84 42.1123 125.191 42.2157L 125.191 42.9187C 125.049 42.8784 124.902 42.8597 124.754 42.8633C 123.941 42.8633 123.458 43.5858 123.458 44.727L 123.458 47.034L 122.694 47.034L 122.694 43.6863C 122.694 43.1783 122.694 42.6642 122.649 42.2609L 123.394 42.2609C 123.423 42.5143 123.432 42.8787 123.432 43.1229L 123.435 43.1229ZM 126.35 44.8091C 126.322 45.2678 126.493 45.7163 126.818 46.0406C 127.143 46.3639 127.592 46.5301 128.049 46.4973C 128.519 46.5004 128.982 46.3803 129.393 46.1494L 129.422 46.8524C 128.977 47.0453 128.497 47.1408 128.012 47.1326C 126.454 47.1326 125.577 46.1751 125.577 44.61C 125.577 43.1199 126.475 42.1531 127.79 42.1531C 129.01 42.1531 129.768 42.9125 129.768 44.4766C 129.768 44.5618 129.768 44.7024 129.749 44.8019L 126.35 44.8091ZM 129.02 44.22C 129.02 43.2276 128.525 42.7494 127.769 42.7494C 127.015 42.7494 126.445 43.2728 126.371 44.22L 129.02 44.22ZM 133.843 41.2849L 132.986 41.2849L 132.986 40.4023L 133.843 40.4023L 133.843 41.2849ZM 133.802 47.032L 133.037 47.032L 133.037 42.2609L 133.802 42.2609L 133.802 47.032ZM 134.961 46.2141C 135.32 46.4227 135.724 46.535 136.137 46.5404C 136.659 46.5404 137.108 46.2859 137.108 45.7984C 137.108 45.3746 136.846 45.1898 136.082 44.8409C 135.317 44.493 134.961 44.1903 134.961 43.5396C 134.961 42.6878 135.641 42.189 136.581 42.189C 136.953 42.1854 137.323 42.2515 137.672 42.384L 137.608 43.0357C 137.291 42.878 136.943 42.7975 136.59 42.8007C 136.114 42.8007 135.723 43.0357 135.723 43.4842C 135.723 43.9337 136.02 44.0835 136.665 44.3462C 137.533 44.6952 137.886 45.1057 137.886 45.742C 137.886 46.6995 137.141 47.1685 136.205 47.1685C 135.761 47.1767 135.321 47.0966 134.909 46.9335L 134.961 46.2141ZM 141.829 41.7826C 141.829 42.2516 141.829 42.8438 141.799 43.0839L 141.819 43.0839C 141.983 42.7956 142.219 42.5569 142.504 42.3922C 142.788 42.2275 143.111 42.1429 143.438 42.1469C 144.734 42.1469 145.146 43.0388 145.146 44.2847L 145.146 47.0217L 144.381 47.0217L 144.381 44.5874C 144.381 43.5458 144.232 42.7884 143.26 42.7884C 142.457 42.7884 141.832 43.361 141.832 44.6921L 141.832 47.0248L 141.068 47.0248L 141.068 39.9435L 141.832 39.9435L 141.829 41.7826ZM 147.024 44.8091C 146.996 45.2678 147.165 45.7163 147.491 46.0406C 147.817 46.3639 148.265 46.5301 148.721 46.4973C 149.192 46.5004 149.655 46.3803 150.066 46.1494L 150.096 46.8524C 149.65 47.0453 149.17 47.1408 148.686 47.1326C 147.128 47.1326 146.25 46.1751 146.25 44.61C 146.25 43.1199 147.147 42.1531 148.462 42.1531C 149.684 42.1531 150.442 42.9125 150.442 44.4766C 150.442 44.5618 150.442 44.7024 150.422 44.8019L 147.024 44.8091ZM 149.694 44.22C 149.694 43.2276 149.197 42.7494 148.443 42.7494C 147.688 42.7494 147.118 43.2728 147.043 44.22L 149.694 44.22ZM 152.363 43.1229C 152.488 42.7736 152.739 42.4857 153.065 42.3173C 153.39 42.1489 153.767 42.1126 154.118 42.2157L 154.118 42.9187C 153.976 42.8784 153.828 42.8597 153.681 42.8633C 152.868 42.8633 152.385 43.5858 152.385 44.727L 152.385 47.034L 151.618 47.034L 151.618 43.6863C 151.618 43.1783 151.618 42.6642 151.572 42.2609L 152.318 42.2609C 152.347 42.5143 152.356 42.8787 152.356 43.1229L 152.363 43.1229ZM 155.281 44.8091C 155.253 45.2678 155.423 45.7163 155.748 46.0406C 156.074 46.3639 156.522 46.5301 156.979 46.4973C 157.449 46.5004 157.912 46.3803 158.323 46.1494L 158.353 46.8524C 157.907 47.0453 157.427 47.1408 156.943 47.1326C 155.385 47.1326 154.507 46.1751 154.507 44.61C 154.507 43.1199 155.404 42.1531 156.719 42.1531C 157.941 42.1531 158.699 42.9125 158.699 44.4766C 158.699 44.5618 158.699 44.7024 158.679 44.8019L 155.281 44.8091ZM 157.951 44.22C 157.951 43.2276 157.454 42.7494 156.7 42.7494C 155.945 42.7494 155.375 43.2728 155.3 44.22L 157.951 44.22Z" fill="white"/>
</g>
</g>
</g>
</svg>

