<svg width="485" height="67" viewBox="0 0 485 67" fill="none" xmlns="http://www.w3.org/2000/svg">
<path d="M29.5572 34.0748C29.5572 36.7218 28.8292 38.8395 27.4217 40.4277C26.0142 42.0159 24.1699 42.7859 21.9374 42.7859C19.6563 42.7859 17.7634 41.9677 16.2589 40.3795C14.7543 38.7913 13.9778 36.6737 13.9778 34.0748V6.78662H0V34.0748C0 38.1657 0.922145 41.679 2.7179 44.711C4.51366 47.743 7.08596 50.1013 10.3863 51.7376C13.6866 53.422 17.5208 54.2402 21.8888 54.2402C26.2083 54.2402 29.994 53.422 33.2943 51.7376C36.5461 50.0531 39.0698 47.743 40.8171 44.711C42.5643 41.679 43.4864 38.1175 43.4864 34.0748V6.78662H29.5572V34.0748Z" fill="white"/>
<path d="M96.0001 19.0101C97.6988 17.9513 99.5917 17.4219 101.679 17.4219C103.62 17.4219 105.561 17.9994 107.6 19.1063C109.638 20.2133 111.385 21.7533 112.841 23.7266L120.898 14.2455C118.52 11.7428 115.608 9.7215 112.065 8.18142C108.522 6.68947 105.027 5.91943 101.484 5.91943C96.7282 5.91943 92.4086 6.97824 88.5745 9.04771C84.7403 11.1172 81.7312 14.0048 79.5471 17.6625C77.3631 21.3202 76.2468 25.411 76.2468 29.935C76.2468 34.5552 77.3146 38.6942 79.4501 42.4C81.5856 46.1058 84.5461 49.0416 88.3318 51.111C92.1174 53.2286 96.3399 54.2874 101.048 54.2874C104.591 54.2874 108.134 53.4693 111.725 51.8329C115.317 50.1966 118.374 47.9828 120.947 45.2395L112.89 36.721C111.288 38.4054 109.444 39.753 107.454 40.7155C105.416 41.6781 103.523 42.1593 101.727 42.1593C99.6402 42.1593 97.7474 41.6299 96.0487 40.523C94.35 39.4161 92.991 37.9723 92.0204 36.0953C91.0497 34.2183 90.5643 32.1007 90.5643 29.7425C90.5643 27.3842 91.0497 25.2666 92.0204 23.3897C92.9425 21.5127 94.3015 20.0689 96.0001 19.0101Z" fill="white"/>
<path d="M152.64 19.0103C149.582 17.4702 146.039 16.7002 142.011 16.7002C137.934 16.7002 134.391 17.4702 131.333 19.0103C128.275 20.5504 125.897 22.7161 124.247 25.5075C122.597 28.2989 121.723 31.5716 121.723 35.2774C121.723 38.935 122.548 42.2077 124.247 44.9991C125.946 47.7905 128.275 49.9562 131.333 51.4963C134.391 53.0364 137.934 53.8064 142.011 53.8064C146.087 53.8064 149.63 53.0364 152.64 51.4963C155.697 49.9562 158.027 47.7905 159.725 44.9991C161.424 42.2077 162.249 38.935 162.249 35.2774C162.249 31.5716 161.424 28.2989 159.725 25.5075C158.027 22.7161 155.697 20.5504 152.64 19.0103ZM146.767 41.2452C145.554 42.689 143.952 43.459 142.011 43.459C140.021 43.459 138.371 42.7371 137.206 41.2452C136.041 39.7532 135.41 37.8281 135.41 35.4217C135.41 33.0154 135.992 31.0903 137.206 29.5983C138.419 28.1064 140.021 27.3845 142.011 27.3845C143.952 27.3845 145.554 28.1064 146.767 29.5983C147.98 31.0903 148.563 33.0154 148.563 35.4217C148.563 37.8281 147.932 39.8013 146.767 41.2452Z" fill="white"/>
<path d="M223.499 18.3847C221.558 17.2777 219.277 16.7002 216.753 16.7002C213.938 16.7002 211.463 17.374 209.376 18.7215C207.24 20.0691 205.59 21.9942 204.474 24.545C203.503 22.0423 201.95 20.1172 199.863 18.7697C197.776 17.374 195.301 16.7002 192.486 16.7002C190.011 16.7002 187.827 17.2296 185.934 18.2403C183.992 19.2991 182.439 20.791 181.177 22.7161V17.1815H167.636V53.3251H181.177V35.4699C181.177 33.4004 181.711 31.7159 182.731 30.4165C183.798 29.1171 185.157 28.4914 186.904 28.4433C188.409 28.4433 189.622 28.9727 190.545 30.0315C191.467 31.0903 191.903 32.5341 191.903 34.2667V53.3251H205.444V35.4699C205.444 33.4004 205.978 31.7159 206.998 30.4165C208.017 29.1171 209.424 28.4914 211.171 28.4433C212.676 28.4433 213.889 28.9727 214.811 30.0315C215.734 31.0903 216.17 32.5341 216.17 34.2667V53.3251H229.711V30.4165C229.711 27.6732 229.178 25.2669 228.11 23.1974C226.994 21.0798 225.44 19.4916 223.499 18.3847Z" fill="white"/>
<path d="M292.757 18.3847C290.815 17.2777 288.534 16.7002 286.011 16.7002C283.196 16.7002 280.72 17.374 278.633 18.7215C276.498 20.0691 274.848 21.9942 273.732 24.545C272.761 22.0423 271.208 20.1172 269.121 18.7697C267.034 17.374 264.559 16.7002 261.744 16.7002C259.268 16.7002 257.084 17.2296 255.192 18.2403C253.25 19.2991 251.697 20.791 250.435 22.7161V17.1815H236.846V53.3251H250.387V35.4699C250.387 33.4004 250.921 31.7159 251.94 30.4165C253.007 29.1171 254.366 28.4914 256.114 28.4433C257.618 28.4433 258.832 28.9727 259.754 30.0315C260.676 31.0903 261.113 32.5341 261.113 34.2667V53.3251H274.654V35.4699C274.654 33.4004 275.188 31.7159 276.207 30.4165C277.226 29.1171 278.633 28.4914 280.381 28.4433C281.885 28.4433 283.099 28.9727 284.021 30.0315C284.943 31.0903 285.38 32.5341 285.38 34.2667V53.3251H298.921V30.4165C298.921 27.6732 298.387 25.2669 297.319 23.1974C296.251 21.0798 294.698 19.4916 292.757 18.3847Z" fill="white"/>
<path d="M329.109 35.0855C329.109 37.155 328.623 38.8394 327.604 40.1389C326.585 41.4383 325.226 42.064 323.479 42.1121C322.023 42.1121 320.809 41.5827 319.936 40.572C319.062 39.5132 318.577 38.1175 318.577 36.3368V17.1821H305.036V40.0908C305.036 42.8821 305.57 45.3366 306.638 47.4061C307.705 49.4756 309.21 51.1119 311.151 52.2189C313.093 53.3258 315.325 53.9033 317.897 53.9033C320.324 53.9033 322.46 53.3739 324.352 52.3632C326.245 51.3526 327.847 49.8606 329.06 47.9355V53.3258H342.65V17.1821H329.109V35.0855Z" fill="white"/>
<path d="M382.787 18.3847C380.797 17.2777 378.516 16.7002 375.944 16.7002C373.42 16.7002 371.139 17.2296 369.198 18.2403C367.256 19.2991 365.655 20.791 364.344 22.8124V17.1815H350.803V53.3251H364.344V35.4699C364.344 33.4004 364.878 31.7159 365.946 30.4165C367.014 29.1171 368.47 28.4914 370.314 28.4433C371.867 28.4433 373.129 28.9727 374.1 30.0315C375.07 31.0903 375.556 32.5341 375.556 34.2667V53.3251H389.097V30.4165C389.097 27.6732 388.563 25.2669 387.447 23.1974C386.33 21.0798 384.777 19.4916 382.787 18.3847Z" fill="white"/>
<path d="M402.929 0C400.891 0 399.192 0.625656 397.881 1.92509C396.571 3.22453 395.892 4.86086 395.892 6.93034C395.892 8.95169 396.571 10.6361 397.881 11.8875C399.192 13.1869 400.891 13.8126 402.929 13.8126C404.967 13.8126 406.666 13.1869 407.977 11.8875C409.287 10.588 409.918 8.95169 409.918 6.93034C409.918 4.90899 409.287 3.22453 407.977 1.92509C406.666 0.625656 404.967 0 402.929 0Z" fill="white"/>
<path d="M409.772 17.1821H396.231V53.3258H409.772V17.1821Z" fill="white"/>
<path d="M440.446 42.352C438.504 43.0739 437.145 43.4108 436.272 43.4108C435.301 43.4108 434.525 43.122 433.991 42.5445C433.457 41.967 433.166 41.1007 433.166 39.9456V27.625H442.144V19.0583H433.166V9.04785H419.722V19.0583H414.723V27.625H419.722V42.0151C419.722 45.6728 420.886 48.6086 423.216 50.7262C425.546 52.8438 428.652 53.9026 432.535 53.9026C434.427 53.9026 436.272 53.71 438.116 53.2769C439.96 52.8438 441.562 52.3144 442.824 51.5924L440.446 42.352Z" fill="white"/>
<path d="M471.508 17.1809L464.761 39.3195L456.802 17.1809H442.921L458.015 52.3139L457.336 53.5652C456.559 55.1053 455.249 55.8753 453.404 55.8753C452.531 55.8753 451.706 55.731 450.929 55.3941C450.153 55.1053 449.376 54.5759 448.502 53.8059L442.873 62.7576C444.717 64.1533 446.561 65.1158 448.454 65.7896C450.347 66.4152 452.385 66.7521 454.618 66.7521C458.258 66.7521 461.364 65.8858 463.839 64.2014C466.363 62.5169 468.304 59.8699 469.712 56.3085L485 17.1328H471.508V17.1809Z" fill="white"/>
<path d="M61.4438 6.25635C58.2405 6.25635 55.4741 7.4114 53.193 9.67339C50.9119 11.9354 49.7471 14.6786 49.7471 17.855C49.7471 21.0315 50.9119 23.7747 53.193 26.0367C55.4741 28.2987 58.2405 29.4537 61.4438 29.4537C64.6955 29.4537 67.5105 28.2987 69.8401 26.0367C72.1698 23.7747 73.3346 21.0315 73.3346 17.855C73.3346 14.6786 72.1698 11.9354 69.8401 9.67339C67.5105 7.4114 64.6955 6.25635 61.4438 6.25635ZM65.5206 21.609C64.4043 22.6678 62.9968 23.1972 61.4438 23.1972C59.8907 23.1972 58.5803 22.6678 57.5125 21.609C56.3962 20.5502 55.8623 19.2989 55.8623 17.855C55.8623 16.4112 56.3962 15.1599 57.5125 14.1011C58.6288 13.0423 59.9392 12.5129 61.4438 12.5129C63.0454 12.5129 64.4043 13.0423 65.5206 14.1011C66.6369 15.1599 67.2193 16.4112 67.2193 17.855C67.2193 19.2989 66.6854 20.5502 65.5206 21.609Z" fill="white"/>
</svg>
